<svg width="581" height="1290" viewBox="0 0 581 1290" fill="none" xmlns="http://www.w3.org/2000/svg">
<path d="M571 1279.5C566.834 1279.5 556 1284 556 1284C544.334 1279.5 519.4 1270.2 513 1269C505 1267.5 471 1261.5 459.5 1266.5C450.3 1270.5 448.667 1271.17 449 1271C441.167 1258.67 421.9 1231.5 407.5 1221.5C393.1 1211.5 357.167 1191.33 341 1182.5C359.5 1170.33 397.6 1144.6 402 1139C407.5 1132 425.5 1110.67 425.5 1104C436.5 1108.67 457.7 1120.5 464.5 1120.5C473 1120.5 495 1122 502.5 1117.5C507.517 1114.49 510.087 1112.78 510.502 1112.5C510.501 1112.5 510.501 1112.5 510.5 1112.5C510.582 1112.45 510.583 1112.45 510.502 1112.5C519.003 1119.34 537.2 1133.3 542 1134.5C546.8 1135.7 563.333 1138.33 571 1139.5L571 1279.5Z" fill="#3E7B69"/>
<path d="M571 1279.5V1285H576.5L576.5 1279.5L571 1279.5ZM556 1284L554.021 1289.13L556.076 1289.92L558.11 1289.08L556 1284ZM513 1269L511.987 1274.41L511.987 1274.41L513 1269ZM459.5 1266.5L461.693 1271.54L461.693 1271.54L459.5 1266.5ZM449 1271L451.459 1275.92L456.91 1273.2L453.643 1268.05L449 1271ZM341 1182.5L337.978 1177.9L330.327 1182.94L338.363 1187.33L341 1182.5ZM402 1139L406.325 1142.4L406.325 1142.4L402 1139ZM425.5 1104L427.648 1098.94C425.949 1098.22 424.002 1098.4 422.464 1099.41C420.925 1100.43 420 1102.15 420 1104H425.5ZM502.5 1117.5L505.33 1122.22L505.33 1122.22L502.5 1117.5ZM510.5 1112.5L507.449 1107.92L501.224 1112.07L507.043 1116.78L510.5 1112.5ZM571 1139.5L576.5 1139.5L576.5 1134.77L571.827 1134.06L571 1139.5ZM571 1274C569.204 1274 567.165 1274.44 565.498 1274.88C563.706 1275.36 561.813 1275.97 560.128 1276.56C558.432 1277.15 556.881 1277.73 555.758 1278.17C555.195 1278.39 554.735 1278.58 554.413 1278.71C554.251 1278.77 554.124 1278.82 554.036 1278.86C553.992 1278.88 553.957 1278.89 553.933 1278.9C553.921 1278.91 553.911 1278.91 553.904 1278.91C553.9 1278.92 553.897 1278.92 553.895 1278.92C553.894 1278.92 553.893 1278.92 553.892 1278.92C553.892 1278.92 553.892 1278.92 553.891 1278.92C553.891 1278.92 553.891 1278.92 556 1284C558.11 1289.08 558.11 1289.08 558.11 1289.08C558.11 1289.08 558.109 1289.08 558.109 1289.08C558.109 1289.08 558.109 1289.08 558.109 1289.08C558.11 1289.08 558.111 1289.08 558.113 1289.08C558.116 1289.08 558.122 1289.07 558.13 1289.07C558.147 1289.06 558.174 1289.05 558.21 1289.04C558.282 1289.01 558.392 1288.96 558.535 1288.91C558.822 1288.79 559.241 1288.62 559.758 1288.42C560.796 1288.01 562.215 1287.48 563.747 1286.94C565.292 1286.41 566.889 1285.89 568.3 1285.52C569.836 1285.12 570.713 1285 571 1285V1274ZM557.98 1278.87C552.117 1276.61 542.923 1273.14 534.378 1270.08C526.065 1267.11 517.746 1264.29 514.014 1263.59L511.987 1274.41C514.655 1274.91 522.003 1277.34 530.673 1280.44C539.111 1283.46 548.218 1286.89 554.021 1289.13L557.98 1278.87ZM514.014 1263.59C509.957 1262.83 499.272 1260.92 488.095 1259.84C482.512 1259.3 476.692 1258.95 471.456 1259.07C466.39 1259.19 461.209 1259.76 457.307 1261.46L461.693 1271.54C463.542 1270.74 466.923 1270.18 471.717 1270.07C476.34 1269.96 481.677 1270.27 487.031 1270.79C497.729 1271.83 508.044 1273.67 511.987 1274.41L514.014 1263.59ZM457.307 1261.46C452.711 1263.45 450.018 1264.61 448.52 1265.25C447.764 1265.57 447.34 1265.75 447.136 1265.83C446.96 1265.91 447.076 1265.85 447.261 1265.79C447.302 1265.78 447.386 1265.75 447.494 1265.72C447.55 1265.71 447.837 1265.63 448.214 1265.57C448.355 1265.55 448.877 1265.48 449.543 1265.55C449.871 1265.59 450.564 1265.69 451.353 1266.07C452.199 1266.48 453.447 1267.37 454.093 1269.04C454.723 1270.68 454.414 1272.12 454.131 1272.9C453.857 1273.65 453.478 1274.17 453.287 1274.42C452.899 1274.91 452.515 1275.22 452.404 1275.31C452.118 1275.54 451.873 1275.69 451.821 1275.72C451.728 1275.78 451.652 1275.82 451.614 1275.84C451.535 1275.88 451.476 1275.91 451.459 1275.92L446.542 1266.08C446.504 1266.1 446.428 1266.14 446.336 1266.19C446.292 1266.21 446.211 1266.26 446.113 1266.32C446.057 1266.35 445.808 1266.5 445.52 1266.73C445.409 1266.82 445.024 1267.13 444.636 1267.62C444.444 1267.87 444.065 1268.39 443.79 1269.15C443.508 1269.93 443.199 1271.37 443.829 1273C444.475 1274.68 445.723 1275.57 446.569 1275.98C447.359 1276.36 448.052 1276.46 448.38 1276.49C449.047 1276.56 449.57 1276.49 449.712 1276.47C450.092 1276.42 450.382 1276.34 450.444 1276.32C450.557 1276.29 450.647 1276.26 450.696 1276.24C450.942 1276.16 451.203 1276.05 451.277 1276.02C451.573 1275.9 452.07 1275.7 452.83 1275.37C454.366 1274.72 457.09 1273.54 461.693 1271.54L457.307 1261.46ZM453.643 1268.05C449.637 1261.74 442.752 1251.71 435.023 1241.96C427.394 1232.33 418.554 1222.48 410.637 1216.98L404.363 1226.02C410.846 1230.52 418.839 1239.25 426.402 1248.79C433.865 1258.21 440.53 1267.92 444.358 1273.95L453.643 1268.05ZM410.637 1216.98C395.947 1206.78 359.731 1186.47 343.637 1177.67L338.363 1187.33C354.602 1196.2 390.253 1216.22 404.363 1226.02L410.637 1216.98ZM344.022 1187.09C353.3 1180.99 367.495 1171.49 379.937 1162.8C386.154 1158.45 391.972 1154.29 396.533 1150.83C398.81 1149.11 400.816 1147.53 402.419 1146.18C403.914 1144.92 405.389 1143.59 406.325 1142.4L397.675 1135.6C397.676 1135.6 397.672 1135.61 397.664 1135.62C397.656 1135.62 397.645 1135.64 397.629 1135.66C397.597 1135.69 397.553 1135.74 397.494 1135.8C397.375 1135.93 397.214 1136.09 397.005 1136.29C396.584 1136.69 396.028 1137.18 395.33 1137.77C393.934 1138.95 392.097 1140.4 389.895 1142.06C385.497 1145.39 379.809 1149.47 373.638 1153.78C361.305 1162.39 347.2 1171.84 337.978 1177.9L344.022 1187.09ZM406.325 1142.4C408.935 1139.08 414.992 1131.76 420.24 1124.64C422.879 1121.06 425.435 1117.36 427.355 1114.07C428.314 1112.42 429.174 1110.77 429.81 1109.21C430.403 1107.75 431 1105.9 431 1104H420C420 1103.77 420.035 1104.04 419.622 1105.06C419.251 1105.97 418.663 1107.13 417.848 1108.53C416.221 1111.33 413.934 1114.65 411.385 1118.11C406.258 1125.07 400.565 1131.92 397.675 1135.6L406.325 1142.4ZM423.352 1109.06C428.745 1111.35 436.401 1115.29 444.233 1118.98C448.031 1120.76 451.815 1122.46 455.133 1123.72C458.21 1124.89 461.674 1126 464.5 1126V1115C463.926 1115 462.19 1114.63 459.036 1113.44C456.122 1112.33 452.644 1110.78 448.917 1109.02C441.699 1105.63 433.255 1101.32 427.648 1098.94L423.352 1109.06ZM464.5 1126C468.226 1126 476.548 1126.37 484.013 1126.19C487.871 1126.09 491.846 1125.85 495.417 1125.3C498.851 1124.78 502.507 1123.91 505.33 1122.22L499.67 1112.78C498.743 1113.34 496.836 1113.96 493.77 1114.43C490.842 1114.87 487.379 1115.1 483.737 1115.19C476.202 1115.38 469.274 1115 464.5 1115V1126ZM505.33 1122.22C510.409 1119.17 513.073 1117.41 513.599 1117.05L507.405 1107.96C507.101 1108.16 504.626 1109.81 499.67 1112.78L505.33 1122.22ZM513.599 1117.05C513.627 1117.03 513.664 1117 513.702 1116.98C513.716 1116.97 513.759 1116.94 513.811 1116.9C513.826 1116.89 513.905 1116.83 514 1116.75C514.026 1116.73 514.181 1116.61 514.362 1116.44C514.41 1116.39 514.712 1116.11 515.019 1115.68C515.125 1115.54 515.591 1114.9 515.859 1113.94C516.002 1113.43 516.191 1112.47 515.939 1111.3C515.654 1109.98 514.884 1108.79 513.757 1107.98C511.962 1106.7 510.107 1106.98 509.938 1106.99C509.415 1107.05 509.02 1107.18 508.869 1107.23C508.529 1107.34 508.276 1107.46 508.207 1107.49C508.021 1107.58 507.881 1107.66 507.85 1107.67C507.753 1107.73 507.679 1107.78 507.662 1107.79C507.609 1107.82 507.567 1107.85 507.553 1107.86C507.514 1107.88 507.477 1107.9 507.449 1107.92L513.551 1117.08C513.564 1117.07 513.558 1117.07 513.54 1117.08C513.536 1117.09 513.502 1117.11 513.454 1117.14C513.44 1117.15 513.368 1117.19 513.273 1117.24C513.242 1117.26 513.102 1117.34 512.916 1117.43C512.848 1117.46 512.595 1117.58 512.255 1117.69C512.104 1117.74 511.709 1117.86 511.186 1117.92C511.017 1117.94 509.162 1118.22 507.367 1116.94C506.24 1116.13 505.47 1114.94 505.185 1113.62C504.934 1112.45 505.122 1111.49 505.266 1110.98C505.534 1110.02 505.999 1109.38 506.106 1109.24C506.412 1108.81 506.714 1108.53 506.762 1108.48C506.943 1108.31 507.098 1108.19 507.123 1108.17C507.217 1108.09 507.294 1108.04 507.306 1108.03C507.353 1107.99 507.389 1107.97 507.393 1107.96C507.411 1107.95 507.418 1107.95 507.405 1107.96L513.599 1117.05ZM507.043 1116.78C507.051 1116.78 507.057 1116.79 507.061 1116.79C507.063 1116.79 507.065 1116.79 507.066 1116.8C507.066 1116.8 507.067 1116.8 507.067 1116.8C507.067 1116.8 507.067 1116.8 507.067 1116.8C507.068 1116.8 507.065 1116.8 507.062 1116.79C507.058 1116.79 507.052 1116.78 507.045 1116.78L513.959 1108.22C513.951 1108.22 513.945 1108.21 513.941 1108.21C513.939 1108.21 513.937 1108.21 513.936 1108.21C513.936 1108.2 513.935 1108.2 513.935 1108.2C513.935 1108.2 513.935 1108.2 513.935 1108.2C513.934 1108.2 513.937 1108.21 513.94 1108.21C513.944 1108.21 513.95 1108.22 513.957 1108.22L507.043 1116.78ZM507.056 1116.79C511.356 1120.24 518.107 1125.5 524.415 1130.07C527.563 1132.35 530.66 1134.5 533.316 1136.17C534.642 1137.01 535.915 1137.76 537.065 1138.36C538.131 1138.92 539.411 1139.52 540.666 1139.84L543.334 1129.16C543.389 1129.18 543.051 1129.08 542.17 1128.62C541.373 1128.2 540.37 1127.61 539.182 1126.86C536.81 1125.37 533.927 1123.37 530.863 1121.16C524.748 1116.73 518.149 1111.59 513.948 1108.21L507.056 1116.79ZM540.666 1139.84C545.783 1141.11 562.646 1143.79 570.173 1144.94L571.827 1134.06C564.021 1132.87 547.817 1130.28 543.334 1129.16L540.666 1139.84ZM565.5 1139.5L565.5 1279.5L576.5 1279.5L576.5 1139.5L565.5 1139.5Z" fill="#306B5A"/>
<path d="M423.302 1182.72L572.001 1212.5L576.501 1219L572.001 1223L424.634 1186.89L423.302 1182.72Z" fill="#306B5A"/>
<path d="M133.786 360.5C128.287 373 120.12 398 120.787 409L102.787 438C89.1204 413.667 56.3867 364.4 50.7867 356C43.7867 345.5 28.7861 299.5 20.7861 270C12.7861 240.5 -1.04695 204 10.2861 144.5C14.286 123.5 58.7861 50 58.7861 50C58.7861 50 80.6194 18.5 88.2861 6C88.7861 12 150.786 154.5 157.786 170C164.786 185.5 167.786 240 165.286 261.5C162.786 283 139.285 348 133.786 360.5Z" fill="#6C9D88" stroke="#3F7865" stroke-width="11" stroke-linejoin="round"/>
<path d="M512.287 1010C521.087 1009.2 559.287 1040 577.287 1055.5V1010C558.787 995.5 520.987 966 517.787 964C514.587 962 497.12 936.5 488.787 924C489.954 921.5 496.287 912 512.287 894C532.287 871.5 529.287 836.5 527.287 823C525.287 809.5 507.287 764.5 505.287 761C503.287 757.5 468.787 723.5 458.287 716C449.887 710 423.454 676.167 411.287 660C410.454 663.167 408.087 671.6 405.287 680C401.787 690.5 402.787 735.5 402.787 764.5C402.787 793.5 412.287 825.5 421.287 847C428.487 864.2 451.287 900.5 461.787 916.5C446.454 907.5 408.987 884.6 381.787 865C354.587 845.4 314.787 797.5 298.287 776L333.787 654C352.454 635.667 391.287 597.2 397.287 590C404.787 581 414.287 537 414.287 527.5C414.287 518 405.787 492 400.287 478C394.787 464 376.287 438 374.287 436C372.687 434.4 360.62 419 354.787 411.5C338.954 427.5 304.187 463.2 291.787 478C276.287 496.5 261.787 536.5 271.287 571.5C278.887 599.5 302.454 635.833 313.287 650.5L281.287 748.5C279.954 747.833 274.187 743.5 261.787 731.5C246.287 716.5 236.287 701 228.787 692C221.287 683 191.287 621 184.287 609.5C177.287 598 143.287 506.5 132.787 478C124.387 455.2 120.954 421.5 120.287 407.5L103.787 441.5C105.954 452.833 110.787 477.8 112.787 487C114.787 496.2 130.287 539.5 137.787 560C130.62 554 110.387 539.1 86.7871 527.5C63.1871 515.9 30.9538 512.333 17.7871 512C21.2871 513.5 32.7871 560 32.7871 564.5C32.7871 569 36.7871 582.5 49.2871 606.5C61.7871 630.5 94.2871 650.5 120.287 659C141.087 665.8 176.287 666.833 191.287 666.5C191.287 674.5 269.62 779.167 308.787 830.5C297.62 824.667 274.487 812.7 271.287 811.5C267.287 810 237.787 774 220.287 764.5C202.787 755 157.787 786.5 156.287 793.5C154.801 800.435 185.213 844.666 191.127 853.267L191.287 853.5C196.787 861.5 212.287 872.5 223.287 873C232.087 873.4 261.62 854.333 275.287 836.5L357.287 867.5L427.287 924C423.62 925.333 415.487 928.6 412.287 931C408.287 934 395.287 948.5 388.787 957.5C383.587 964.7 363.287 978.833 353.787 985C364.787 989.5 378.787 1012 384.287 1018C389.787 1024 402.787 1037.5 420.287 1046.5C437.787 1055.5 444.287 1052 467.287 1050.5C490.287 1049 501.287 1011 512.287 1010Z" fill="#4E8976"/>
<path d="M577.287 1055.5L575.329 1057.77L580.287 1062.04V1055.5H577.287ZM512.287 1010L512.015 1007.01L512.015 1007.01L512.287 1010ZM353.787 985L352.154 982.483L347.344 985.605L352.651 987.776L353.787 985ZM388.787 957.5L391.219 959.256L391.219 959.256L388.787 957.5ZM412.287 931L414.087 933.4L414.087 933.4L412.287 931ZM427.287 924L428.312 926.819L433.307 925.003L429.171 921.665L427.287 924ZM357.287 867.5L359.171 865.165L358.797 864.864L358.348 864.694L357.287 867.5ZM275.287 836.5L276.348 833.694L274.262 832.905L272.906 834.675L275.287 836.5ZM223.287 873L223.151 875.997L223.151 875.997L223.287 873ZM191.287 853.5L193.759 851.8L193.759 851.8L191.287 853.5ZM191.127 853.267L188.655 854.967L188.655 854.967L191.127 853.267ZM156.287 793.5L159.22 794.128L159.22 794.128L156.287 793.5ZM271.287 811.5L272.341 808.691L272.34 808.691L271.287 811.5ZM308.787 830.5L307.398 833.159L311.172 828.68L308.787 830.5ZM191.287 666.5H194.287V663.433L191.22 663.501L191.287 666.5ZM120.287 659L119.355 661.851L119.355 661.851L120.287 659ZM17.7871 512L17.863 509.001L16.6054 514.757L17.7871 512ZM86.7871 527.5L88.1105 524.808L88.1105 524.808L86.7871 527.5ZM137.787 560L135.861 562.3L144.456 569.495L140.604 558.969L137.787 560ZM103.787 441.5L101.088 440.19L100.654 441.086L100.84 442.063L103.787 441.5ZM120.287 407.5L123.284 407.357L117.588 406.19L120.287 407.5ZM132.787 478L135.602 476.963L135.602 476.963L132.787 478ZM261.787 731.5L263.873 729.344L263.873 729.344L261.787 731.5ZM281.287 748.5L279.945 751.183L283.059 752.74L284.139 749.431L281.287 748.5ZM313.287 650.5L316.139 651.431L316.619 649.961L315.7 648.718L313.287 650.5ZM271.287 571.5L268.392 572.286L268.392 572.286L271.287 571.5ZM291.787 478L294.087 479.927L294.087 479.927L291.787 478ZM354.787 411.5L357.155 409.658L355.058 406.961L352.655 409.39L354.787 411.5ZM374.287 436L376.408 433.879L376.408 433.879L374.287 436ZM397.287 590L399.592 591.921L399.592 591.921L397.287 590ZM333.787 654L331.685 651.86L331.126 652.409L330.907 653.162L333.787 654ZM298.287 776L295.407 775.162L294.982 776.621L295.907 777.826L298.287 776ZM461.787 916.5L460.268 919.087L464.295 914.854L461.787 916.5ZM421.287 847L424.054 845.842L424.054 845.842L421.287 847ZM405.287 680L408.133 680.949L408.133 680.949L405.287 680ZM411.287 660L413.684 658.196C412.993 657.277 411.837 656.835 410.709 657.056C409.581 657.278 408.678 658.125 408.386 659.237L411.287 660ZM458.287 716L456.543 718.441L456.543 718.441L458.287 716ZM512.287 894L510.045 892.007L510.045 892.007L512.287 894ZM488.787 924L486.069 922.731L485.355 924.26L486.291 925.664L488.787 924ZM577.287 1010H580.287V1008.54L579.138 1007.64L577.287 1010ZM579.245 1053.23C570.209 1045.45 556.099 1033.82 543.121 1024.23C536.638 1019.43 530.381 1015.1 525.152 1012.01C522.542 1010.47 520.122 1009.19 518.016 1008.32C516.03 1007.5 513.89 1006.84 512.015 1007.01L512.559 1012.99C512.884 1012.96 513.863 1013.09 515.72 1013.86C517.459 1014.58 519.607 1015.7 522.097 1017.17C527.068 1020.11 533.136 1024.3 539.554 1029.05C552.375 1038.53 566.365 1050.05 575.329 1057.77L579.245 1053.23ZM512.015 1007.01C509.81 1007.21 507.88 1008.31 506.245 1009.64C504.597 1010.98 503.017 1012.75 501.494 1014.68C498.511 1018.47 495.2 1023.62 491.845 1028.32C488.379 1033.18 484.676 1037.85 480.526 1041.4C476.398 1044.92 471.991 1047.19 467.092 1047.51L467.482 1053.49C474.083 1053.06 479.676 1050.01 484.423 1045.96C489.148 1041.93 493.195 1036.76 496.729 1031.8C500.374 1026.7 503.314 1022.06 506.206 1018.4C507.619 1016.6 508.883 1015.23 510.032 1014.29C511.194 1013.35 512.014 1013.04 512.559 1012.99L512.015 1007.01ZM467.092 1047.51C461.282 1047.88 456.503 1048.39 452.412 1048.79C448.291 1049.19 444.919 1049.47 441.753 1049.44C435.605 1049.38 430.063 1048.15 421.659 1043.83L418.915 1049.17C428.012 1053.85 434.469 1055.37 441.697 1055.44C445.217 1055.47 448.877 1055.16 452.99 1054.76C457.134 1054.36 461.792 1053.86 467.482 1053.49L467.092 1047.51ZM421.659 1043.83C404.647 1035.08 391.939 1021.91 386.499 1015.97L382.076 1020.03C387.635 1026.09 400.927 1039.92 418.915 1049.17L421.659 1043.83ZM386.499 1015.97C385.25 1014.61 383.448 1012.22 381.152 1009.15C378.903 1006.14 376.26 1002.58 373.44 999.061C370.623 995.547 367.579 992.013 364.501 989.05C361.463 986.125 358.199 983.563 354.923 982.223L352.651 987.776C354.875 988.686 357.486 990.625 360.339 993.372C363.152 996.08 366.014 999.39 368.759 1002.81C371.501 1006.23 374.077 1009.7 376.344 1012.74C378.564 1015.71 380.574 1018.39 382.076 1020.03L386.499 1015.97ZM355.42 987.516C360.215 984.404 367.724 979.289 374.704 974.034C378.193 971.407 381.578 968.725 384.435 966.225C387.251 963.763 389.71 961.346 391.219 959.256L386.355 955.743C385.264 957.254 383.236 959.303 380.485 961.709C377.778 964.077 374.519 966.663 371.095 969.241C364.25 974.394 356.859 979.429 352.154 982.483L355.42 987.516ZM391.219 959.256C394.386 954.872 399.187 949.081 403.715 943.995C408.321 938.821 412.371 934.687 414.087 933.4L410.487 928.6C408.203 930.313 403.754 934.928 399.234 940.005C394.637 945.168 389.688 951.128 386.355 955.743L391.219 959.256ZM414.087 933.4C415.384 932.427 417.928 931.129 420.829 929.842C423.648 928.591 426.533 927.466 428.312 926.819L426.262 921.18C424.374 921.867 421.359 923.042 418.395 924.358C415.513 925.637 412.39 927.172 410.487 928.6L414.087 933.4ZM429.171 921.665L359.171 865.165L355.403 869.834L425.403 926.334L429.171 921.665ZM358.348 864.694L276.348 833.694L274.226 839.306L356.226 870.306L358.348 864.694ZM272.906 834.675C266.336 843.247 255.815 852.264 245.773 859.108C240.768 862.519 235.959 865.337 231.913 867.265C229.888 868.229 228.099 868.949 226.602 869.412C225.06 869.888 224.02 870.03 223.423 870.003L223.151 875.997C224.755 876.07 226.562 875.704 228.373 875.144C230.229 874.571 232.298 873.727 234.493 872.682C238.886 870.59 243.964 867.602 249.152 864.066C259.492 857.019 270.571 847.585 277.668 838.325L272.906 834.675ZM223.423 870.003C218.704 869.789 212.615 867.243 206.846 863.538C201.111 859.856 196.208 855.363 193.759 851.8L188.815 855.2C191.866 859.637 197.463 864.644 203.604 868.587C209.709 872.507 216.871 875.711 223.151 875.997L223.423 870.003ZM193.759 851.8L193.599 851.567L188.655 854.967L188.815 855.2L193.759 851.8ZM193.599 851.568C190.642 847.267 181.593 834.105 173.473 821.164C169.409 814.686 165.612 808.319 162.934 803.17C161.591 800.589 160.566 798.384 159.928 796.663C159.608 795.801 159.41 795.126 159.309 794.626C159.198 794.072 159.255 793.968 159.22 794.128L153.354 792.871C153.134 793.898 153.254 794.952 153.428 795.812C153.612 796.727 153.921 797.721 154.302 798.749C155.066 800.808 156.219 803.264 157.611 805.939C160.401 811.303 164.299 817.831 168.391 824.353C176.584 837.412 185.698 850.667 188.655 854.967L193.599 851.568ZM159.22 794.128C159.195 794.248 159.209 794.092 159.542 793.602C159.845 793.156 160.306 792.586 160.946 791.898C162.224 790.526 164.056 788.857 166.341 787.016C170.903 783.34 177.072 779.138 183.743 775.435C190.429 771.724 197.495 768.584 203.864 766.944C210.358 765.271 215.506 765.318 218.856 767.136L221.718 761.863C216.318 758.932 209.279 759.353 202.367 761.134C195.329 762.946 187.77 766.338 180.831 770.189C173.877 774.049 167.421 778.441 162.577 782.343C160.159 784.291 158.093 786.157 156.554 787.81C155.786 788.635 155.109 789.45 154.579 790.231C154.08 790.966 153.567 791.877 153.354 792.871L159.22 794.128ZM218.856 767.136C222.915 769.34 227.83 773.181 233.075 777.876C238.287 782.541 243.683 787.92 248.696 793.089C253.782 798.332 258.226 803.099 261.932 806.942C263.738 808.814 265.331 810.427 266.614 811.629C267.253 812.228 267.852 812.759 268.385 813.181C268.842 813.543 269.508 814.037 270.234 814.309L272.34 808.691C272.566 808.776 272.533 808.813 272.11 808.477C271.763 808.203 271.3 807.798 270.716 807.25C269.552 806.159 268.047 804.639 266.251 802.777C262.755 799.151 257.98 794.043 253.003 788.911C247.954 783.705 242.444 778.209 237.077 773.405C231.744 768.632 226.409 764.41 221.718 761.863L218.856 767.136ZM270.234 814.309C270.858 814.543 272.742 815.432 275.596 816.844C278.372 818.217 281.9 820.001 285.685 821.934C293.254 825.8 301.82 830.245 307.398 833.159L310.176 827.841C304.588 824.922 296.004 820.467 288.414 816.591C284.62 814.653 281.066 812.856 278.256 811.466C275.524 810.114 273.316 809.057 272.341 808.691L270.234 814.309ZM311.172 828.68C291.596 803.024 262.236 764.042 237.774 730.483C225.54 713.699 214.549 698.295 206.622 686.598C202.655 680.745 199.481 675.856 197.307 672.204C196.218 670.373 195.409 668.902 194.882 667.801C194.618 667.249 194.448 666.838 194.35 666.553C194.231 666.207 194.287 666.242 194.287 666.5H188.287C188.287 667.258 188.496 667.982 188.676 668.505C188.877 669.087 189.151 669.725 189.47 670.391C190.11 671.728 191.023 673.376 192.151 675.272C194.415 679.076 197.666 684.078 201.655 689.964C209.64 701.747 220.68 717.217 232.925 734.017C257.422 767.624 286.811 806.643 306.402 832.32L311.172 828.68ZM191.22 663.501C183.816 663.665 171.368 663.493 158.202 662.435C144.99 661.373 131.275 659.436 121.219 656.149L119.355 661.851C130.099 665.364 144.385 667.344 157.722 668.415C171.106 669.491 183.758 669.668 191.354 669.499L191.22 663.501ZM121.219 656.149C108.499 651.99 94.1401 644.998 81.4458 636.105C68.7204 627.191 57.8911 616.525 51.9479 605.114L46.6264 607.886C53.1831 620.475 64.8539 631.809 78.0034 641.02C91.1841 650.252 106.075 657.51 119.355 661.851L121.219 656.149ZM51.9479 605.114C45.7402 593.196 41.6719 583.938 39.1638 577.148C36.6086 570.23 35.7871 566.169 35.7871 564.5H29.7871C29.7871 567.331 30.9656 572.27 33.5354 579.227C36.1523 586.312 40.334 595.804 46.6264 607.886L51.9479 605.114ZM35.7871 564.5C35.7871 563.603 35.5423 562.093 35.2343 560.458C34.9038 558.705 34.4325 556.475 33.8618 553.948C32.7196 548.891 31.1632 542.572 29.4976 536.349C27.8343 530.136 26.0495 523.971 24.4491 519.242C23.6523 516.887 22.878 514.818 22.166 513.257C21.8133 512.484 21.439 511.753 21.0454 511.149C20.8483 510.847 20.6084 510.517 20.3221 510.213C20.0591 509.934 19.6112 509.518 18.9689 509.243L16.6054 514.757C16.1818 514.576 15.9683 514.342 15.954 514.326C15.9165 514.287 15.9399 514.304 16.0193 514.426C16.1787 514.67 16.4104 515.096 16.707 515.747C17.2939 517.033 17.9922 518.879 18.7657 521.165C20.306 525.717 22.0524 531.739 23.7016 537.901C25.3486 544.053 26.8858 550.296 28.0093 555.27C28.5714 557.759 29.0259 559.913 29.338 561.569C29.4943 562.399 29.6113 563.084 29.688 563.615C29.7263 563.88 29.7526 564.092 29.7687 564.254C29.7767 564.335 29.7816 564.397 29.7844 564.442C29.7872 564.489 29.7871 564.506 29.7871 564.5H35.7871ZM17.7112 514.999C30.6976 515.328 62.429 518.87 85.4638 530.192L88.1105 524.808C63.9452 512.93 31.2099 509.339 17.863 509.001L17.7112 514.999ZM85.4638 530.192C108.813 541.669 128.846 556.427 135.861 562.3L139.713 557.7C132.395 551.573 111.962 536.531 88.1105 524.808L85.4638 530.192ZM140.604 558.969C136.858 548.729 131.114 532.795 126.058 518.276C120.963 503.646 116.67 490.738 115.719 486.363L109.856 487.637C110.904 492.462 115.361 505.804 120.391 520.249C125.461 534.805 131.216 550.771 134.97 561.031L140.604 558.969ZM115.719 486.363C113.729 477.208 108.903 452.284 106.734 440.937L100.84 442.063C103.004 453.382 107.846 478.392 109.856 487.637L115.719 486.363ZM106.486 442.81L122.986 408.81L117.588 406.19L101.088 440.19L106.486 442.81ZM117.291 407.643C117.961 421.721 121.409 455.795 129.972 479.037L135.602 476.963C127.365 454.605 123.947 421.279 123.284 407.357L117.291 407.643ZM129.972 479.037C135.224 493.292 146.354 523.306 157.048 551.199C162.395 565.144 167.638 578.572 171.986 589.241C176.283 599.787 179.82 607.93 181.725 611.06L186.85 607.94C185.255 605.32 181.917 597.713 177.542 586.977C173.218 576.365 167.992 562.981 162.651 549.051C151.97 521.194 140.85 491.208 135.602 476.963L129.972 479.037ZM181.725 611.06C185.151 616.689 194.31 634.882 203.683 653.062C208.341 662.096 213.027 671.078 217.023 678.371C220.953 685.543 224.381 691.398 226.482 693.921L231.092 690.079C229.444 688.102 226.309 682.832 222.285 675.488C218.328 668.266 213.671 659.341 209.016 650.313C199.764 632.368 190.423 613.811 186.85 607.94L181.725 611.06ZM226.482 693.921C233.662 702.537 244.073 718.532 259.701 733.656L263.873 729.344C248.501 714.468 238.912 699.463 231.092 690.079L226.482 693.921ZM259.701 733.656C265.935 739.689 270.528 743.82 273.752 746.542C276.868 749.174 278.907 750.664 279.945 751.183L282.629 745.817C282.636 745.82 282.606 745.806 282.531 745.76C282.459 745.717 282.362 745.656 282.236 745.572C281.983 745.404 281.645 745.166 281.215 744.845C280.354 744.203 279.17 743.264 277.622 741.958C274.529 739.346 270.039 735.311 263.873 729.344L259.701 733.656ZM284.139 749.431L316.139 651.431L310.435 649.569L278.435 747.569L284.139 749.431ZM315.7 648.718C304.899 634.095 281.627 598.141 274.182 570.714L268.392 572.286C276.148 600.859 300.008 637.572 310.874 652.282L315.7 648.718ZM274.182 570.714C269.604 553.847 270.784 535.648 275.064 519.323C279.349 502.981 286.671 488.777 294.087 479.927L289.488 476.073C281.403 485.723 273.726 500.769 269.26 517.802C264.79 534.852 263.47 554.153 268.392 572.286L274.182 570.714ZM294.087 479.927C306.389 465.243 341.055 429.641 356.92 413.61L352.655 409.39C336.852 425.359 301.985 461.157 289.488 476.073L294.087 479.927ZM352.419 413.342C355.339 417.096 359.819 422.828 363.772 427.824C365.747 430.321 367.597 432.641 369.055 434.44C370.451 436.163 371.626 437.582 372.166 438.121L376.408 433.879C376.148 433.618 375.215 432.512 373.716 430.663C372.28 428.89 370.448 426.592 368.477 424.101C364.538 419.122 360.069 413.404 357.155 409.658L352.419 413.342ZM372.166 438.121C372.156 438.112 372.182 438.138 372.255 438.221C372.322 438.299 372.41 438.404 372.52 438.539C372.74 438.81 373.023 439.172 373.366 439.622C374.051 440.521 374.941 441.73 375.98 443.183C378.058 446.087 380.706 449.928 383.464 454.143C389.028 462.645 394.87 472.415 397.495 479.097L403.079 476.903C400.204 469.585 394.046 459.355 388.485 450.857C385.681 446.572 382.985 442.663 380.86 439.692C379.798 438.207 378.871 436.948 378.14 435.987C377.461 435.095 376.828 434.299 376.408 433.879L372.166 438.121ZM397.495 479.097C400.214 486.018 403.686 495.938 406.475 505.294C407.869 509.972 409.082 514.476 409.944 518.374C410.818 522.328 411.287 525.468 411.287 527.5H417.287C417.287 524.782 416.694 521.11 415.802 517.079C414.899 512.993 413.643 508.341 412.225 503.581C409.388 494.062 405.86 483.982 403.079 476.903L397.495 479.097ZM411.287 527.5C411.287 529.574 410.743 533.862 409.733 539.477C408.737 545.01 407.33 551.617 405.688 558.213C404.046 564.815 402.181 571.359 400.277 576.779C398.324 582.341 396.47 586.294 394.982 588.079L399.592 591.921C401.854 589.206 404.001 584.284 405.938 578.768C407.925 573.11 409.841 566.372 411.511 559.662C413.182 552.946 414.618 546.209 415.638 540.539C416.644 534.951 417.287 530.176 417.287 527.5H411.287ZM394.982 588.079C392.093 591.547 381.017 602.836 368.164 615.705C355.382 628.505 341.014 642.697 331.685 651.86L335.889 656.14C345.227 646.969 359.609 632.762 372.41 619.945C385.141 607.197 396.481 595.653 399.592 591.921L394.982 588.079ZM330.907 653.162L295.407 775.162L301.168 776.838L336.668 654.838L330.907 653.162ZM295.907 777.826C304.2 788.632 318.325 806.043 333.795 823.22C349.225 840.352 366.155 857.434 380.033 867.434L383.541 862.566C370.219 852.966 353.649 836.298 338.254 819.205C322.9 802.157 308.875 784.868 300.667 774.174L295.907 777.826ZM380.033 867.434C407.346 887.115 444.905 910.07 460.268 919.087L463.306 913.913C448.002 904.93 410.629 882.085 383.541 862.566L380.033 867.434ZM464.295 914.854C453.755 898.792 431.126 862.735 424.054 845.842L418.52 848.158C425.848 865.665 448.82 902.208 459.279 918.146L464.295 914.854ZM424.054 845.842C415.136 824.536 405.787 792.95 405.787 764.5H399.787C399.787 794.049 409.438 826.464 418.52 848.158L424.054 845.842ZM405.787 764.5C405.787 749.932 405.537 731.519 405.724 715.347C405.818 707.273 406.02 699.818 406.414 693.749C406.815 687.561 407.398 683.154 408.133 680.949L402.441 679.051C401.426 682.096 400.822 687.252 400.426 693.361C400.023 699.588 399.819 707.165 399.725 715.278C399.537 731.481 399.787 750.067 399.787 764.5H405.787ZM408.133 680.949C410.958 672.475 413.342 663.979 414.188 660.763L408.386 659.237C407.565 662.355 405.217 670.725 402.441 679.051L408.133 680.949ZM408.89 661.804C414.99 669.91 424.666 682.443 433.877 693.711C438.481 699.344 442.987 704.682 446.883 709.001C450.71 713.245 454.14 716.725 456.543 718.441L460.031 713.559C458.234 712.275 455.21 709.276 451.338 704.983C447.535 700.766 443.097 695.511 438.522 689.914C429.375 678.724 419.751 666.257 413.684 658.196L408.89 661.804ZM456.543 718.441C461.574 722.035 472.656 732.237 482.887 742.154C487.964 747.076 492.769 751.866 496.422 755.635C498.25 757.521 499.776 759.138 500.898 760.38C501.46 761.002 501.905 761.514 502.23 761.908C502.594 762.35 502.697 762.514 502.682 762.488L507.892 759.512C507.627 759.048 507.226 758.537 506.86 758.093C506.455 757.601 505.944 757.015 505.351 756.359C504.162 755.042 502.582 753.37 500.73 751.459C497.024 747.635 492.173 742.799 487.063 737.846C476.919 728.013 465.5 717.465 460.031 713.559L456.543 718.441ZM502.682 762.488C503.057 763.144 504.468 766.374 506.508 771.395C508.497 776.291 510.987 782.639 513.477 789.3C515.968 795.965 518.452 802.92 520.433 809.034C522.435 815.21 523.86 820.339 524.32 823.44L530.255 822.56C529.714 818.911 528.14 813.352 526.141 807.185C524.122 800.955 521.606 793.91 519.097 787.2C516.587 780.486 514.077 774.084 512.066 769.136C510.107 764.313 508.517 760.606 507.892 759.512L502.682 762.488ZM524.32 823.44C525.3 830.056 526.516 841.896 525.056 854.787C523.594 867.698 519.481 881.391 510.045 892.007L514.529 895.993C525.093 884.109 529.48 869.052 531.018 855.462C532.559 841.854 531.275 829.444 530.255 822.56L524.32 823.44ZM510.045 892.007C502.004 901.053 496.368 907.991 492.581 913.004C488.849 917.945 486.799 921.166 486.069 922.731L491.506 925.268C491.942 924.333 493.642 921.555 497.369 916.62C501.04 911.759 506.571 904.947 514.529 895.993L510.045 892.007ZM486.291 925.664C490.468 931.929 496.935 941.454 502.765 949.673C505.678 953.779 508.45 957.584 510.705 960.499C511.83 961.954 512.85 963.218 513.708 964.197C514.469 965.065 515.365 966.024 516.197 966.544L519.377 961.456C519.409 961.476 519.06 961.2 518.22 960.243C517.478 959.396 516.543 958.241 515.451 956.829C513.27 954.01 510.554 950.283 507.659 946.202C501.873 938.045 495.44 928.571 491.283 922.336L486.291 925.664ZM516.197 966.544C516.843 966.947 519.648 969.041 524.011 972.376C528.285 975.642 533.881 979.965 539.96 984.683C552.118 994.116 566.189 1005.11 575.436 1012.36L579.138 1007.64C569.885 1000.39 555.806 989.384 543.639 979.942C537.556 975.222 531.946 970.889 527.654 967.609C523.451 964.396 520.332 962.053 519.377 961.456L516.197 966.544ZM574.287 1010V1055.5H580.287V1010H574.287Z" fill="#3F7865"/>
<path d="M90.7871 353C91.9871 360.2 102.62 419 108.287 445.5L116.787 430.5C112.287 405.5 103.187 354.5 102.787 350.5C102.387 346.5 90.6204 278.167 84.7871 244.5C86.2871 277.667 89.5871 345.8 90.7871 353Z" fill="#4E8976"/>
</svg>
