<svg width="614" height="940" viewBox="0 0 614 940" fill="none" xmlns="http://www.w3.org/2000/svg">
<path d="M317.005 934C230.494 901.364 160.41 920.402 136.182 934L122 926.906C131.455 920.994 151.428 908.459 155.683 905.622C161.001 902.074 181.5 826 184.047 813.39C186.014 803.654 194.684 769.048 200.002 753.084C214.184 760.179 215.957 756.632 223.048 751.311C228.721 747.054 270.322 676.225 290.414 641.342C296.323 650.802 315.232 669.012 343.597 666.174C371.961 663.336 393.234 629.518 400.326 612.963C412.735 621.832 428.69 625.379 439.327 625.379C447.836 625.379 466.509 606.46 474.782 597C482.464 602.321 500.31 612.963 510.238 612.963C520.165 612.963 569.921 602.321 593.558 597C592.967 601.139 591.076 611.544 588.24 620.058C585.414 628.538 599.942 648.28 607.649 657.199C608.133 656.856 608.071 656.974 607.74 657.305C607.71 657.27 607.679 657.235 607.649 657.199C606.4 658.082 601.521 662.024 588.24 673.268C569.803 688.877 580.558 722.34 588.24 737.121C583 737.121 571.576 736.057 554.557 745.989C537.538 755.922 556 819 556 819L556.5 826C549.966 828.025 535.222 828.393 515.556 831.126C464.5 838.221 460.009 879.016 464.145 898.526H382.598C341.469 898.526 337.097 922.175 340.051 934H317.005Z" fill="#3E7B69"/>
<path d="M136.182 934C160.41 920.402 230.494 901.364 317.005 934H340.051C337.097 922.175 341.469 898.526 382.598 898.526C423.726 898.526 454.1 898.526 464.145 898.526C460.009 879.016 464.5 838.221 515.556 831.126C535.222 828.393 549.966 828.025 556.5 826L556 819C556 819 537.538 755.922 554.557 745.989C571.576 736.057 583 737.121 588.24 737.121C580.558 722.34 569.803 688.877 588.24 673.268C606.676 657.66 608.922 656.123 607.74 657.305C600.058 648.437 585.403 628.572 588.24 620.058C591.076 611.544 592.967 601.139 593.558 597C569.921 602.321 520.165 612.963 510.238 612.963C500.31 612.963 482.464 602.321 474.782 597C466.509 606.46 447.836 625.379 439.327 625.379C428.69 625.379 412.735 621.832 400.326 612.963C393.234 629.518 371.961 663.336 343.597 666.174C315.232 669.012 296.323 650.802 290.414 641.342C270.322 676.225 228.721 747.054 223.048 751.311C215.957 756.632 214.184 760.179 200.002 753.084C194.684 769.048 186.014 803.654 184.047 813.39C181.5 826 161.001 902.074 155.683 905.622C151.428 908.459 131.455 920.994 122 926.906L136.182 934Z" stroke="#306B5A" stroke-width="11" stroke-linejoin="round"/>
<path d="M526.5 652.5L179 915.5L128 930.5L166.5 900L516 648L526.5 652.5Z" fill="#306B5A"/>
<path d="M105.5 926.621C95.1 933.421 42.1667 931.787 17 930.121V785.621C37.8333 784.621 81.2 781.921 88 779.121C96.5 775.621 122 774.621 125.5 775.121C128.3 775.521 130.333 782.287 131 785.621C130.833 819.454 130.3 888.121 129.5 892.121C128.5 897.121 118.5 918.121 105.5 926.621Z" fill="#4E8976" stroke="#3F7865" stroke-width="11" stroke-linejoin="round"/>
<path d="M68.9992 683.16C54.5992 684.36 29.6658 671.994 18.9992 665.66C18.4992 657.16 17.4992 638.36 17.4992 631.16C17.4992 622.16 15.4992 595.16 29.4992 588.66C43.4992 582.16 47.4992 572.66 56.4992 561.66C65.4992 550.66 81.9992 550.66 96.4992 551.16C110.999 551.66 136.499 567.16 147.999 575.16C159.499 583.16 197.999 619.66 202.999 627.16C207.999 634.66 207.999 644.16 207.999 645.16V670.16C207.999 674.16 204.332 682.827 202.499 686.66C160.499 675.66 86.9992 681.66 68.9992 683.16Z" fill="#4E8976" stroke="#3F7865" stroke-width="11" stroke-linejoin="round"/>
<path d="M114.223 353C115.823 357.8 113.557 381 112.223 392L133.648 398.5C140.648 387 149.648 383.5 154.148 381C158.648 378.5 234.148 346 234.148 343.5C234.148 341 243.148 310 249.648 297C254.848 286.6 285.815 254.333 300.648 239.5C296.982 235.667 288.648 225.9 284.648 217.5C279.648 207 287.148 148 297.648 104.5C306.048 69.7 291.148 24.3333 282.648 6C278.482 19 266.248 51.5 250.648 77.5C235.048 103.5 207.148 108.667 195.148 108C189.648 122.5 160.148 172 150.648 182.5C141.148 193 113.148 185.5 111.148 186C109.148 186.5 106.148 196.5 104.148 202.5C103.105 205.629 90.9809 221.333 83.1477 228.5C82.1477 233.667 86.3232 248.5 92.7232 256.5C100.723 266.5 112.223 347 114.223 353Z" fill="#6C9D88" stroke="#3F7865" stroke-width="11" stroke-linejoin="round"/>
<path d="M111.5 388.678C83.5 450.278 29.5 491.345 6 504.178V517.178C6 520.778 8.33333 531.678 9.5 536.678C21.6667 529.011 48.3 511.778 57.5 504.178C69 494.678 78 487.678 91 481.178C104 474.678 136.5 488.678 162 502.678C187.5 516.678 214.5 515.678 245.5 508.178C276.5 500.678 293 476.678 294.5 472.178C296 467.678 322 422.178 319.5 419.178C317 416.178 251.5 376.678 227 374.178C202.5 371.678 179.5 396.178 169 407.178C160.6 415.978 124.5 439.511 107.5 450.178L138 397.678L124.75 393.178L111.5 388.678Z" fill="#4E8976" stroke="#3F7865" stroke-width="6" stroke-linejoin="round"/>
<path d="M261 132C261 132 119.5 386 118 388C116.5 390 113.5 392.5 113.5 392.5L133.5 399.5C133.5 399.5 133.5 397 135 394C136.5 391 197.5 281 204 265.5C210.5 250 261 132 261 132Z" fill="#4E8976"/>
<path d="M62 387.5C66 395.9 26.3333 436.333 6 455.5L7 240C9.83333 249.167 17.2 269.4 24 277C30.8 284.6 53.5 287.167 64 287.5C58 295.333 45.6 317.7 44 344.5C42 378 57 377 62 387.5Z" fill="#3E7B69" stroke="#306B5A" stroke-width="11" stroke-linejoin="round"/>
<circle cx="491.5" cy="414.291" r="122.5" fill="#E76761"/>
<path fill-rule="evenodd" clip-rule="evenodd" d="M423.001 315.29C416.168 297.624 403.501 260.49 407.501 253.29C411.501 246.09 421.167 242.29 425.5 241.29C420.833 225.457 413.3 191.59 420.5 182.79C429.5 171.79 441 171.29 445.5 175.29C450 179.29 449.5 189.791 442.5 203.291C436.9 214.091 440.167 230.791 442.5 237.791C450.333 235.457 467.9 232.191 475.5 237.791C485 244.791 492 285.791 492.5 292.791C492.9 298.391 446.334 310.124 423.001 315.29ZM430.501 185.29C433.501 182.79 436.401 182.69 438.001 184.29C439.601 185.89 438.668 189.957 438.001 191.79L430.001 202.29C429.001 203.124 426.501 204.49 424.501 203.29C422.001 201.79 423.501 196.79 424.501 194.79C424.658 194.476 424.84 194.088 425.046 193.647C426.154 191.281 427.972 187.398 430.501 185.29Z" fill="#397867"/>
</svg>
