<svg width="280" height="131" viewBox="0 0 280 131" fill="none" xmlns="http://www.w3.org/2000/svg">
<path d="M24.664 30.8907C24.0513 29.9716 22.8095 29.7233 21.8905 30.336C20.9714 30.9487 20.7231 32.1904 21.3358 33.1095L24.664 30.8907ZM28.1939 36.1855L24.664 30.8907L21.3358 33.1095L24.8657 38.4043L28.1939 36.1855Z" fill="#448877"/>
<path d="M26.4546 28L26.4546 128" stroke="#448877" stroke-width="4.5" stroke-linecap="round"/>
<path d="M26.7925 108.08L35.8457 100.483" stroke="#448877" stroke-width="4.5" stroke-linecap="round"/>
<path d="M26.8062 116.024L9.57398 100.508" stroke="#448877" stroke-width="4.5" stroke-linecap="round"/>
<path d="M26.5229 97.9307L48.4548 78.1831" stroke="#448877" stroke-width="4.5" stroke-linecap="round"/>
<path d="M26.833 82.5151L48.0623 62.0142" stroke="#448877" stroke-width="4.5" stroke-linecap="round"/>
<path d="M26.2861 66.856L34.5376 54.6226" stroke="#448877" stroke-width="4.5" stroke-linecap="round"/>
<path d="M26.7905 52.2295L31.5057 45.239" stroke="#448877" stroke-width="4.5" stroke-linecap="round"/>
<path d="M26.4985 102.395L3.00012 81.2365" stroke="#448877" stroke-width="4.5" stroke-linecap="round"/>
<path d="M26.3521 88.3154L6.30988 69.6258" stroke="#448877" stroke-width="4.5" stroke-linecap="round"/>
<path d="M26.2729 67.3569L11.1092 52.7134" stroke="#448877" stroke-width="4.5" stroke-linecap="round"/>
<path d="M26.6362 54.3633L16.2233 38.5352" stroke="#448877" stroke-width="4.5" stroke-linecap="round"/>
<path d="M46.2048 86.062C47.1525 86.2516 48.0745 85.637 48.264 84.6892C48.4536 83.7415 47.8389 82.8196 46.8912 82.63L46.2048 86.062ZM41.7476 85.1706L46.2048 86.062L46.8912 82.63L42.434 81.7386L41.7476 85.1706Z" fill="#448877"/>
<path d="M42.8804 64.7952C43.0699 63.8475 42.4553 62.9255 41.5076 62.736C40.5599 62.5464 39.6379 63.1611 39.4484 64.1088L42.8804 64.7952ZM41.989 69.2524L42.8804 64.7952L39.4484 64.1088L38.5569 68.566L41.989 69.2524Z" fill="#448877"/>
<path d="M13.8246 85.018C13.635 84.0702 12.7131 83.4556 11.7654 83.6452C10.8176 83.8347 10.203 84.7566 10.3925 85.7044L13.8246 85.018ZM14.716 89.4752L13.8246 85.018L10.3925 85.7044L11.284 90.1616L14.716 89.4752Z" fill="#448877"/>
<path d="M7.99704 73.5737C7.04369 73.4148 6.14204 74.0588 5.98315 75.0122C5.82426 75.9655 6.4683 76.8672 7.42164 77.0261L7.99704 73.5737ZM13.2877 74.4555L7.99704 73.5737L7.42164 77.0261L12.7123 77.9078L13.2877 74.4555Z" fill="#448877"/>
<path d="M11.5062 57.0809C10.5529 57.2398 9.90885 58.1414 10.0677 59.0947C10.2266 60.0481 11.1283 60.6921 12.0816 60.5332L11.5062 57.0809ZM16.3485 56.2738L11.5062 57.0809L12.0816 60.5332L16.9239 59.7262L16.3485 56.2738Z" fill="#448877"/>
<path d="M79.1426 92.576C76.9666 91.68 75.3666 90.752 74.3426 89.792C73.3826 88.768 72.9986 87.872 73.1906 87.104C73.3186 86.72 73.5426 86.368 73.8626 86.048C74.1826 85.728 74.8866 85.6 75.9746 85.664C77.1266 85.664 78.8866 85.952 81.2546 86.528C81.9586 86.528 82.6626 86.496 83.3666 86.432C84.0706 86.368 84.7106 86.272 85.2866 86.144C85.9266 86.016 86.4386 85.856 86.8226 85.664C87.1426 85.536 87.2386 85.376 87.1106 85.184C86.9826 84.928 86.7586 84.672 86.4386 84.416C86.1826 84.096 85.8946 83.904 85.5746 83.84C85.2546 83.712 84.9666 83.648 84.7106 83.648C84.5826 83.328 84.2946 83.008 83.8466 82.688C83.4626 82.368 82.9826 82.016 82.4066 81.632C80.9986 80.48 79.7186 79.456 78.5666 78.56C77.4146 77.664 76.9666 76.992 77.2226 76.544C77.2226 76.288 77.2226 76.16 77.2226 76.16C77.2226 76.096 77.2226 76.064 77.2226 76.064C76.7746 76.064 76.3586 75.456 75.9746 74.24C75.5906 72.96 75.3986 71.808 75.3986 70.784C75.3986 69.504 75.6546 68.224 76.1666 66.944C76.7426 65.664 77.4466 64.448 78.2786 63.296C79.1746 62.144 80.0706 61.12 80.9666 60.224C82.1826 59.072 83.4626 57.952 84.8066 56.864C86.2146 55.712 87.7186 54.688 89.3186 53.792C90.9826 52.896 92.8066 52.192 94.7906 51.68C95.6866 51.488 96.7106 51.392 97.8626 51.392C99.0146 51.392 99.8466 51.552 100.359 51.872C100.871 51.552 101.511 51.648 102.279 52.16C103.047 52.608 103.815 53.248 104.583 54.08C105.351 54.912 105.927 55.744 106.311 56.576C106.311 57.344 106.279 58.304 106.215 59.456C106.215 60.544 106.151 61.504 106.023 62.336C105.895 63.168 105.607 63.584 105.159 63.584C105.159 63.584 105.063 63.616 104.871 63.68C104.743 63.68 104.679 63.84 104.679 64.16C104.679 64.8 104.199 65.536 103.239 66.368C102.023 67.2 100.871 67.872 99.7826 68.384C98.6946 68.896 97.8626 68.928 97.2866 68.48C96.9026 68.224 96.5506 67.968 96.2306 67.712C95.9106 67.456 95.6226 67.136 95.3666 66.752C95.3666 66.752 95.2706 66.624 95.0786 66.368C94.9506 66.048 94.8866 65.76 94.8866 65.504C94.8866 65.248 94.9826 65.024 95.1746 64.832C95.3666 64.576 95.4626 64.448 95.4626 64.448C96.3586 63.616 97.0306 62.848 97.4786 62.144C97.9906 61.44 98.3426 60.832 98.5346 60.32C98.7266 59.744 98.8226 59.296 98.8226 58.976C98.8226 58.592 98.7266 58.368 98.5346 58.304C98.4066 58.176 98.0866 58.112 97.5746 58.112C97.2546 58.112 96.5506 58.368 95.4626 58.88C94.4386 59.392 93.3506 60.032 92.1986 60.8C91.0466 61.504 90.1506 62.144 89.5106 62.72C89.2546 63.168 89.0626 63.456 88.9346 63.584C88.8706 63.712 88.7106 63.776 88.4546 63.776C88.4546 63.52 88.2946 63.552 87.9746 63.872C87.6546 64.192 87.2706 64.64 86.8226 65.216C86.3746 65.792 85.9266 66.4 85.4786 67.04C85.0306 67.68 84.6786 68.192 84.4226 68.576C84.3586 69.152 84.1986 69.696 83.9426 70.208C83.7506 70.656 83.6866 71.136 83.7506 71.648C83.8146 72.288 84.1346 72.896 84.7106 73.472C85.2866 74.048 86.1186 74.784 87.2066 75.68C89.4466 77.344 91.1106 78.656 92.1986 79.616C93.3506 80.576 94.1506 81.344 94.5986 81.92C95.0466 82.496 95.3346 83.072 95.4626 83.648C96.5506 85.632 96.6786 87.36 95.8466 88.832C95.0146 90.24 93.7346 91.328 92.0066 92.096C91.3666 92.416 90.2466 92.704 88.6466 92.96C87.0466 93.28 85.3506 93.408 83.5586 93.344C81.8306 93.344 80.3586 93.088 79.1426 92.576ZM106.753 109.76C105.857 110.016 104.929 109.792 103.969 109.088C103.073 108.384 102.369 107.424 101.857 106.208C101.409 104.992 101.409 103.744 101.857 102.464C101.985 102.08 102.177 101.44 102.433 100.544C102.689 99.712 102.849 98.976 102.913 98.336C102.977 97.888 103.169 97.12 103.489 96.032C103.809 95.008 104.161 93.984 104.545 92.96C104.993 91.936 105.345 91.2 105.601 90.752C105.985 90.112 106.241 89.376 106.369 88.544C106.561 87.712 106.657 87.072 106.657 86.624C106.785 86.176 106.945 85.664 107.137 85.088C107.393 84.512 107.649 84.064 107.905 83.744C108.033 83.232 108.225 82.688 108.481 82.112C108.737 81.472 109.025 80.928 109.345 80.48C109.473 80.032 109.569 79.488 109.633 78.848C109.761 78.208 109.953 77.856 110.209 77.792C110.273 77.536 110.305 77.28 110.305 77.024C110.369 76.768 110.497 76.416 110.689 75.968C110.817 75.264 111.105 74.24 111.553 72.896C112.001 71.552 112.545 70.08 113.185 68.48C113.889 66.624 114.369 65.024 114.625 63.68C114.881 62.272 114.529 61.376 113.569 60.992C113.057 60.736 112.737 60.16 112.609 59.264C112.481 58.304 112.545 57.344 112.801 56.384C113.057 55.424 113.441 54.848 113.953 54.656C114.529 54.4 115.233 54.24 116.065 54.176C116.897 54.112 117.633 54.112 118.273 54.176C118.977 54.176 119.297 54.24 119.233 54.368C119.233 54.688 119.393 54.88 119.713 54.944C119.841 54.752 120.097 55.04 120.481 55.808C120.929 56.512 121.345 57.312 121.729 58.208C122.113 59.104 122.305 59.712 122.305 60.032C122.177 60.288 122.113 60.448 122.113 60.512C122.113 60.512 122.241 60.512 122.497 60.512C122.497 60.512 122.849 60.352 123.553 60.032C124.257 59.648 124.993 59.232 125.761 58.784C126.593 58.272 127.137 57.888 127.393 57.632C127.393 57.632 127.553 57.568 127.873 57.44C128.257 57.248 128.577 57.024 128.833 56.768C130.113 56.256 131.489 56.16 132.961 56.48C134.497 56.8 135.713 57.376 136.609 58.208C137.889 59.808 138.849 61.792 139.489 64.16C140.193 66.528 140.097 68.832 139.201 71.072C139.073 71.392 138.785 71.936 138.337 72.704C137.953 73.408 137.569 74.08 137.185 74.72C136.801 75.296 136.609 75.584 136.609 75.584C135.137 77.888 133.505 79.808 131.713 81.344C129.985 82.88 128.097 84.224 126.049 85.376C125.409 85.824 124.513 86.24 123.361 86.624C122.273 87.008 121.249 87.296 120.289 87.488C119.393 87.68 118.849 87.712 118.657 87.584C117.953 87.072 117.313 85.984 116.737 84.32C116.417 85.152 116.097 85.984 115.777 86.816C115.521 87.584 115.361 88.096 115.297 88.352C115.233 88.8 115.169 89.184 115.105 89.504C115.041 89.76 114.881 89.984 114.625 90.176C114.625 90.176 114.593 90.304 114.529 90.56C114.465 90.816 114.241 91.2 113.857 91.712C113.217 93.568 112.705 95.008 112.321 96.032C111.937 97.12 111.617 97.984 111.361 98.624C111.169 99.328 110.977 100.064 110.785 100.832C110.657 102.56 110.241 104.384 109.537 106.304C108.897 108.224 107.969 109.376 106.753 109.76ZM121.057 78.56C121.313 78.432 121.761 78.208 122.401 77.888C123.105 77.568 123.873 77.184 124.705 76.736C125.537 76.224 126.305 75.744 127.009 75.296C127.777 74.784 128.321 74.336 128.641 73.952C129.153 73.376 129.441 72.928 129.505 72.608C129.569 72.224 129.729 71.616 129.985 70.784C130.177 70.272 130.401 69.696 130.657 69.056C130.913 68.416 131.137 67.808 131.329 67.232C131.585 66.72 131.681 66.208 131.617 65.696C131.617 65.12 131.425 64.64 131.041 64.256C130.785 64.192 130.177 64.288 129.217 64.544C128.321 64.8 127.265 65.312 126.049 66.08C124.897 66.848 123.745 67.968 122.593 69.44C121.249 71.168 120.353 72.736 119.905 74.144C119.457 75.488 119.361 76.576 119.617 77.408C119.873 78.176 120.353 78.56 121.057 78.56ZM146.778 90.56C146.33 90.56 145.722 90.24 144.954 89.6C144.25 88.96 143.834 88.384 143.706 87.872C143.514 87.36 143.514 86.624 143.706 85.664C143.962 84.64 144.314 83.456 144.762 82.112C145.274 80 145.626 78.464 145.818 77.504C146.01 76.544 146.202 75.712 146.394 75.008C146.586 74.304 146.842 73.28 147.162 71.936C147.546 71.104 147.834 70.304 148.026 69.536C148.282 68.704 148.538 67.872 148.794 67.04C149.114 66.208 149.466 65.376 149.85 64.544C150.298 62.88 150.842 61.312 151.482 59.84C152.186 58.304 152.858 57.024 153.498 56C153.626 55.808 153.914 55.456 154.362 54.944C154.81 54.432 155.162 54.176 155.418 54.176C155.93 53.664 156.634 53.504 157.53 53.696C158.426 53.824 159.194 54.144 159.834 54.656C160.602 55.488 161.018 56.48 161.082 57.632C161.21 58.72 160.762 60.256 159.738 62.24C158.97 64.224 158.234 65.792 157.53 66.944C156.89 68.032 156.25 69.312 155.61 70.784C156.314 69.76 157.178 68.704 158.202 67.616C159.226 66.528 160.026 65.664 160.602 65.024C161.434 64.128 162.202 63.424 162.906 62.912C163.674 62.336 164.698 61.632 165.978 60.8C167.066 60.032 168.154 59.328 169.242 58.688C170.394 58.048 171.77 57.856 173.37 58.112C174.01 58.048 174.682 58.368 175.386 59.072C176.154 59.776 176.73 60.704 177.114 61.856C177.562 62.944 177.562 64.128 177.114 65.408C175.642 65.088 174.33 65.152 173.178 65.6C172.026 65.984 171.034 66.464 170.202 67.04C169.434 67.616 168.826 68.064 168.378 68.384C167.738 68.768 167.002 69.28 166.17 69.92C165.338 70.496 164.442 71.168 163.482 71.936C162.522 72.64 161.498 73.44 160.41 74.336C158.874 75.616 157.722 76.736 156.954 77.696C156.186 78.656 155.578 79.68 155.13 80.768C154.746 81.728 154.266 82.88 153.69 84.224C153.114 85.568 152.57 86.784 152.058 87.872C151.546 88.896 151.13 89.536 150.81 89.792C150.49 90.432 149.818 90.784 148.794 90.848C147.834 90.912 147.162 90.816 146.778 90.56ZM201.148 91.808C200.508 91.168 199.996 90.304 199.612 89.216C199.228 88.064 198.844 86.752 198.46 85.28C198.332 84.768 198.268 84.192 198.268 83.552C198.332 82.912 198.332 82.4 198.268 82.016C198.076 82.464 197.756 83.04 197.308 83.744C196.924 84.448 196.54 84.96 196.156 85.28C195.9 85.536 195.324 86.048 194.428 86.816C193.532 87.52 192.636 88.096 191.74 88.544C189.628 89.888 187.74 90.528 186.076 90.464C184.476 90.336 183.068 89.504 181.852 87.968C180.828 87.136 179.996 86.08 179.356 84.8C178.716 83.52 178.588 81.984 178.972 80.192C179.1 77.952 179.42 75.776 179.932 73.664C180.444 71.488 181.5 68.608 183.1 65.024C184.444 62.4 185.468 60.352 186.172 58.88C186.876 57.408 187.324 56.544 187.516 56.288C188.476 55.968 189.66 56 191.068 56.384C192.476 56.704 193.244 57.312 193.372 58.208C193.756 58.848 193.756 60.064 193.372 61.856C192.988 63.584 192.22 65.568 191.068 67.808C190.172 69.984 189.308 72.096 188.476 74.144C187.708 76.192 187.228 77.92 187.036 79.328C186.908 80.736 187.292 81.6 188.188 81.92C188.764 82.24 189.596 82.208 190.684 81.824C191.836 81.44 193.18 80.288 194.716 78.368C196.252 76.448 197.884 73.408 199.612 69.248C200.124 67.968 200.508 66.848 200.764 65.888C201.02 64.864 201.18 63.744 201.244 62.528C201.116 61.76 201.308 60.96 201.82 60.128C202.396 59.296 203.068 58.656 203.836 58.208C204.092 57.888 204.444 57.6 204.892 57.344C205.34 57.024 205.628 57.024 205.756 57.344L207.292 57.248C207.548 57.184 207.836 57.44 208.156 58.016C208.476 58.592 208.796 59.008 209.116 59.264C209.82 59.84 210.14 61.088 210.076 63.008C210.012 64.928 209.244 67.616 207.772 71.072C206.556 73.696 205.724 75.68 205.276 77.024C204.892 78.368 204.668 79.68 204.604 80.96C204.604 82.112 204.7 83.104 204.892 83.936C205.084 84.704 205.66 85.504 206.62 86.336C207.324 86.784 207.708 87.552 207.772 88.64C207.9 89.664 207.932 90.56 207.868 91.328C207.74 91.904 207.228 92.288 206.332 92.48C205.5 92.736 204.572 92.8 203.548 92.672C202.588 92.544 201.788 92.256 201.148 91.808ZM225.639 92.384C223.783 92.704 221.927 92.544 220.071 91.904C218.279 91.264 216.775 90.24 215.559 88.832C214.407 87.36 213.831 85.6 213.831 83.552C213.639 81.632 213.799 79.36 214.311 76.736C214.887 74.048 215.719 71.36 216.807 68.672C217.959 65.984 219.271 63.712 220.743 61.856C222.023 60.32 223.303 58.912 224.583 57.632C225.863 56.352 227.015 55.488 228.039 55.04C228.935 54.656 230.023 54.368 231.303 54.176C232.647 53.92 233.575 53.792 234.087 53.792C235.111 54.048 236.231 54.464 237.447 55.04C238.727 55.616 239.367 56.288 239.367 57.056C239.367 57.056 239.431 57.152 239.559 57.344C239.751 57.472 239.847 57.536 239.847 57.536C240.231 57.536 240.647 58.016 241.095 58.976C241.607 59.872 241.991 60.928 242.247 62.144C242.503 63.296 242.439 64.224 242.055 64.928C241.799 66.144 241.287 67.328 240.519 68.48C239.815 69.632 239.207 70.208 238.695 70.208C238.439 70.208 238.183 70.24 237.927 70.304C237.735 70.304 237.639 70.464 237.639 70.784C237.639 71.104 237.287 71.264 236.583 71.264C235.943 71.264 235.271 71.136 234.567 70.88C233.863 70.624 233.415 70.24 233.223 69.728C233.223 69.408 233.287 68.992 233.415 68.48C233.543 67.968 233.735 67.104 233.991 65.888C234.375 64.096 234.407 62.912 234.087 62.336C233.767 61.696 232.967 61.632 231.687 62.144C230.087 63.04 228.775 64.096 227.751 65.312C226.727 66.464 225.799 68.096 224.967 70.208C224.199 72.32 223.335 75.264 222.375 79.04C221.991 80.512 221.927 81.664 222.183 82.496C222.503 83.328 222.759 83.776 222.951 83.84C223.847 84.096 224.807 84.16 225.831 84.032C226.919 83.84 227.815 83.552 228.519 83.168C229.543 82.656 230.439 82.112 231.207 81.536C232.039 80.896 232.935 80.224 233.895 79.52C234.215 79.328 234.503 78.976 234.759 78.464C235.015 77.888 235.399 77.472 235.911 77.216C236.423 76.448 237.063 76.064 237.831 76.064C238.663 76 239.463 75.968 240.231 75.968C240.743 76.096 241.287 76.416 241.863 76.928C242.439 77.44 242.855 77.952 243.111 78.464C243.431 78.912 243.399 79.232 243.015 79.424C242.759 79.424 242.599 79.52 242.535 79.712C242.535 79.84 242.535 79.904 242.535 79.904C242.663 80.16 242.375 80.736 241.671 81.632C241.031 82.528 240.199 83.488 239.175 84.512C238.151 85.536 237.159 86.432 236.199 87.2C235.303 87.904 234.663 88.256 234.279 88.256C233.639 88.256 233.319 88.448 233.319 88.832C233.319 88.96 232.839 89.28 231.879 89.792C230.983 90.304 229.927 90.816 228.711 91.328C227.559 91.84 226.535 92.192 225.639 92.384ZM258.688 93.728C255.168 93.728 252.448 92.704 250.528 90.656C248.672 88.608 247.744 85.472 247.744 81.248C247.744 78.944 248.16 76.416 248.992 73.664C249.888 70.912 251.04 68.224 252.448 65.6C253.92 62.976 255.52 60.704 257.248 58.784C258.976 56.8 260.704 55.424 262.432 54.656C263.072 54.336 263.744 54.112 264.448 53.984C265.216 53.792 265.952 53.696 266.656 53.696C267.424 53.696 268.256 53.76 269.152 53.888C270.112 53.952 271.008 54.144 271.84 54.464C273.312 54.912 274.592 55.776 275.68 57.056C276.832 58.336 277.408 60.192 277.408 62.624C277.408 63.264 277.344 63.968 277.216 64.736C277.088 65.44 276.864 66.144 276.544 66.848C275.712 68.96 274.432 70.976 272.704 72.896C271.04 74.816 269.28 76.16 267.424 76.928C266.912 77.184 266.4 77.376 265.888 77.504C265.44 77.568 264.96 77.6 264.448 77.6C263.104 77.6 261.888 77.408 260.8 77.024C259.776 76.64 258.816 76.128 257.92 75.488L257.152 74.816L256.672 75.776C256.224 76.992 255.904 78.016 255.712 78.848C255.584 79.68 255.52 80.288 255.52 80.672C255.52 81.44 255.552 82.24 255.616 83.072C255.68 83.84 255.872 84.48 256.192 84.992C256.448 85.312 256.768 85.568 257.152 85.76C257.6 85.952 258.144 86.048 258.784 86.048C259.168 86.048 259.52 86.048 259.84 86.048C260.224 85.984 260.544 85.92 260.8 85.856C261.952 85.6 262.88 85.184 263.584 84.608C264.352 83.968 265.152 83.424 265.984 82.976L266.368 82.784L266.272 82.496C267.36 81.92 268.096 81.568 268.48 81.44C268.864 81.248 269.152 81.088 269.344 80.96C269.6 80.704 269.888 80.576 270.208 80.576C271.104 80.448 271.968 80.704 272.8 81.344C273.696 81.92 274.144 82.656 274.144 83.552C274.144 83.936 273.856 84.544 273.28 85.376C272.768 86.208 272.096 87.04 271.264 87.872C270.496 88.64 269.696 89.248 268.864 89.696C268.672 89.76 268.48 89.856 268.288 89.984C268.096 90.048 267.904 90.144 267.712 90.272H267.808C267.232 91.04 266.656 91.424 266.08 91.424H265.312C265.056 91.872 264.224 92.352 262.816 92.864C261.408 93.44 260.032 93.728 258.688 93.728ZM263.68 70.592C264.256 70.592 264.768 70.496 265.216 70.304C265.728 70.112 266.208 69.888 266.656 69.632C268.192 68.544 269.184 67.136 269.632 65.408C270.08 63.68 269.92 62.368 269.152 61.472C269.024 61.28 268.864 61.152 268.672 61.088C268.48 60.96 268.256 60.896 268 60.896C267.296 60.896 266.496 61.12 265.6 61.568C264.768 62.016 263.936 62.656 263.104 63.488C262.272 64.32 261.504 65.312 260.8 66.464L259.552 68.48C259.68 68.416 259.776 68.384 259.84 68.384C259.968 68.32 260.064 68.288 260.128 68.288C260.704 68.288 261.088 68.48 261.28 68.864C261.472 69.248 261.696 69.632 261.952 70.016C262.272 70.4 262.848 70.592 263.68 70.592Z" fill="#FCFEFD"/>
<path d="M82.5952 121.07C82.5952 120.836 82.5588 120.628 82.4858 120.445C82.4181 120.263 82.2957 120.096 82.1187 119.945C81.9416 119.794 81.6916 119.648 81.3687 119.508C81.0509 119.362 80.6447 119.214 80.1499 119.062C79.6082 118.896 79.1082 118.711 78.6499 118.508C78.1968 118.299 77.8009 118.06 77.4624 117.789C77.1239 117.513 76.8608 117.198 76.6733 116.844C76.4858 116.484 76.3921 116.07 76.3921 115.602C76.3921 115.138 76.4884 114.716 76.6812 114.336C76.8791 113.956 77.1577 113.628 77.5171 113.352C77.8817 113.07 78.3114 112.854 78.8062 112.703C79.3009 112.547 79.8478 112.469 80.4468 112.469C81.2905 112.469 82.0171 112.625 82.6265 112.938C83.241 113.25 83.7124 113.669 84.0405 114.195C84.3739 114.721 84.5405 115.302 84.5405 115.938H82.5952C82.5952 115.562 82.5145 115.232 82.353 114.945C82.1968 114.654 81.9572 114.424 81.6343 114.258C81.3166 114.091 80.9129 114.008 80.4233 114.008C79.9598 114.008 79.5744 114.078 79.2671 114.219C78.9598 114.359 78.7306 114.549 78.5796 114.789C78.4285 115.029 78.353 115.299 78.353 115.602C78.353 115.815 78.4025 116.01 78.5015 116.188C78.6004 116.359 78.7515 116.521 78.9546 116.672C79.1577 116.818 79.4129 116.956 79.7202 117.086C80.0275 117.216 80.3895 117.341 80.8062 117.461C81.4364 117.648 81.9858 117.857 82.4546 118.086C82.9233 118.31 83.314 118.565 83.6265 118.852C83.939 119.138 84.1733 119.464 84.3296 119.828C84.4858 120.188 84.564 120.596 84.564 121.055C84.564 121.534 84.4676 121.966 84.2749 122.352C84.0822 122.732 83.8062 123.057 83.4468 123.328C83.0926 123.594 82.6655 123.799 82.1655 123.945C81.6707 124.086 81.1187 124.156 80.5093 124.156C79.9624 124.156 79.4233 124.083 78.8921 123.938C78.366 123.792 77.8869 123.57 77.4546 123.273C77.0223 122.971 76.6785 122.596 76.4233 122.148C76.1681 121.695 76.0405 121.167 76.0405 120.562H78.0015C78.0015 120.932 78.064 121.247 78.189 121.508C78.3192 121.768 78.4989 121.982 78.728 122.148C78.9572 122.31 79.2228 122.43 79.5249 122.508C79.8322 122.586 80.1603 122.625 80.5093 122.625C80.9676 122.625 81.3504 122.56 81.6577 122.43C81.9702 122.299 82.2046 122.117 82.3608 121.883C82.5171 121.648 82.5952 121.378 82.5952 121.07ZM89.8374 124.156C89.2124 124.156 88.6473 124.055 88.1421 123.852C87.6421 123.643 87.215 123.354 86.8608 122.984C86.5119 122.615 86.2437 122.18 86.0562 121.68C85.8687 121.18 85.7749 120.641 85.7749 120.062V119.75C85.7749 119.089 85.8713 118.49 86.064 117.953C86.2567 117.417 86.5249 116.958 86.8687 116.578C87.2124 116.193 87.6187 115.898 88.0874 115.695C88.5562 115.492 89.064 115.391 89.6108 115.391C90.215 115.391 90.7437 115.492 91.1968 115.695C91.6499 115.898 92.0249 116.185 92.3218 116.555C92.6239 116.919 92.8478 117.354 92.9937 117.859C93.1447 118.365 93.2202 118.922 93.2202 119.531V120.336H86.689V118.984H91.3608V118.836C91.3504 118.497 91.2827 118.18 91.1577 117.883C91.0379 117.586 90.853 117.346 90.603 117.164C90.353 116.982 90.0197 116.891 89.603 116.891C89.2905 116.891 89.0119 116.958 88.7671 117.094C88.5275 117.224 88.327 117.414 88.1655 117.664C88.0041 117.914 87.8791 118.216 87.7905 118.57C87.7072 118.919 87.6655 119.312 87.6655 119.75V120.062C87.6655 120.432 87.715 120.776 87.814 121.094C87.9181 121.406 88.0692 121.68 88.2671 121.914C88.465 122.148 88.7046 122.333 88.9858 122.469C89.2671 122.599 89.5874 122.664 89.9468 122.664C90.3999 122.664 90.8035 122.573 91.1577 122.391C91.5119 122.208 91.8192 121.951 92.0796 121.617L93.0718 122.578C92.8895 122.844 92.6525 123.099 92.3608 123.344C92.0692 123.583 91.7124 123.779 91.2905 123.93C90.8739 124.081 90.3895 124.156 89.8374 124.156ZM99.4546 122.305V118.273C99.4546 117.971 99.3999 117.711 99.2905 117.492C99.1812 117.273 99.0145 117.104 98.7905 116.984C98.5718 116.865 98.2957 116.805 97.9624 116.805C97.6551 116.805 97.3895 116.857 97.1655 116.961C96.9416 117.065 96.7671 117.206 96.6421 117.383C96.5171 117.56 96.4546 117.76 96.4546 117.984H94.5796C94.5796 117.651 94.6603 117.328 94.8218 117.016C94.9832 116.703 95.2176 116.424 95.5249 116.18C95.8322 115.935 96.1994 115.742 96.6265 115.602C97.0535 115.461 97.5327 115.391 98.064 115.391C98.6994 115.391 99.2619 115.497 99.7515 115.711C100.246 115.924 100.634 116.247 100.916 116.68C101.202 117.107 101.345 117.643 101.345 118.289V122.047C101.345 122.432 101.371 122.779 101.423 123.086C101.481 123.388 101.561 123.651 101.666 123.875V124H99.7358C99.6473 123.797 99.577 123.539 99.5249 123.227C99.478 122.909 99.4546 122.602 99.4546 122.305ZM99.728 118.859L99.7437 120.023H98.3921C98.0431 120.023 97.7358 120.057 97.4702 120.125C97.2046 120.188 96.9832 120.281 96.8062 120.406C96.6291 120.531 96.4963 120.682 96.4077 120.859C96.3192 121.036 96.2749 121.237 96.2749 121.461C96.2749 121.685 96.327 121.891 96.4312 122.078C96.5353 122.26 96.6864 122.404 96.8843 122.508C97.0874 122.612 97.3322 122.664 97.6187 122.664C98.0041 122.664 98.34 122.586 98.6265 122.43C98.9181 122.268 99.1473 122.073 99.314 121.844C99.4806 121.609 99.5692 121.388 99.5796 121.18L100.189 122.016C100.126 122.229 100.02 122.458 99.8687 122.703C99.7176 122.948 99.5197 123.182 99.2749 123.406C99.0353 123.625 98.7463 123.805 98.4077 123.945C98.0744 124.086 97.689 124.156 97.2515 124.156C96.6994 124.156 96.2072 124.047 95.7749 123.828C95.3426 123.604 95.0041 123.305 94.7593 122.93C94.5145 122.549 94.3921 122.12 94.3921 121.641C94.3921 121.193 94.4754 120.797 94.6421 120.453C94.814 120.104 95.064 119.812 95.3921 119.578C95.7254 119.344 96.1317 119.167 96.6108 119.047C97.09 118.922 97.6369 118.859 98.2515 118.859H99.728ZM108.056 121.711C108.056 121.523 108.009 121.354 107.916 121.203C107.822 121.047 107.642 120.906 107.376 120.781C107.116 120.656 106.731 120.542 106.22 120.438C105.772 120.339 105.361 120.221 104.986 120.086C104.616 119.945 104.298 119.776 104.033 119.578C103.767 119.38 103.561 119.146 103.416 118.875C103.27 118.604 103.197 118.292 103.197 117.938C103.197 117.594 103.272 117.268 103.423 116.961C103.574 116.654 103.791 116.383 104.072 116.148C104.353 115.914 104.694 115.729 105.095 115.594C105.501 115.458 105.955 115.391 106.455 115.391C107.163 115.391 107.77 115.51 108.275 115.75C108.785 115.984 109.176 116.305 109.447 116.711C109.718 117.112 109.853 117.565 109.853 118.07H107.97C107.97 117.846 107.913 117.638 107.798 117.445C107.689 117.247 107.522 117.089 107.298 116.969C107.074 116.844 106.793 116.781 106.455 116.781C106.132 116.781 105.863 116.833 105.65 116.938C105.442 117.036 105.285 117.167 105.181 117.328C105.082 117.49 105.033 117.667 105.033 117.859C105.033 118 105.059 118.128 105.111 118.242C105.168 118.352 105.262 118.453 105.392 118.547C105.522 118.635 105.699 118.719 105.923 118.797C106.153 118.875 106.439 118.951 106.783 119.023C107.429 119.159 107.983 119.333 108.447 119.547C108.916 119.755 109.275 120.026 109.525 120.359C109.775 120.688 109.9 121.104 109.9 121.609C109.9 121.984 109.819 122.328 109.658 122.641C109.501 122.948 109.272 123.216 108.97 123.445C108.668 123.669 108.306 123.844 107.884 123.969C107.468 124.094 106.999 124.156 106.478 124.156C105.712 124.156 105.064 124.021 104.533 123.75C104.001 123.474 103.598 123.122 103.322 122.695C103.051 122.263 102.916 121.815 102.916 121.352H104.736C104.757 121.701 104.853 121.979 105.025 122.188C105.202 122.391 105.421 122.539 105.681 122.633C105.947 122.721 106.22 122.766 106.501 122.766C106.84 122.766 107.124 122.721 107.353 122.633C107.582 122.539 107.757 122.414 107.876 122.258C107.996 122.096 108.056 121.914 108.056 121.711ZM111.189 119.867V119.688C111.189 119.078 111.278 118.513 111.455 117.992C111.632 117.466 111.887 117.01 112.22 116.625C112.559 116.234 112.97 115.932 113.455 115.719C113.944 115.5 114.496 115.391 115.111 115.391C115.731 115.391 116.283 115.5 116.767 115.719C117.257 115.932 117.671 116.234 118.009 116.625C118.348 117.01 118.606 117.466 118.783 117.992C118.96 118.513 119.048 119.078 119.048 119.688V119.867C119.048 120.477 118.96 121.042 118.783 121.562C118.606 122.083 118.348 122.539 118.009 122.93C117.671 123.315 117.259 123.617 116.775 123.836C116.291 124.049 115.741 124.156 115.126 124.156C114.507 124.156 113.952 124.049 113.462 123.836C112.978 123.617 112.567 123.315 112.228 122.93C111.889 122.539 111.632 122.083 111.455 121.562C111.278 121.042 111.189 120.477 111.189 119.867ZM113.072 119.688V119.867C113.072 120.247 113.111 120.607 113.189 120.945C113.267 121.284 113.389 121.581 113.556 121.836C113.723 122.091 113.936 122.292 114.197 122.438C114.457 122.583 114.767 122.656 115.126 122.656C115.475 122.656 115.778 122.583 116.033 122.438C116.293 122.292 116.507 122.091 116.673 121.836C116.84 121.581 116.962 121.284 117.041 120.945C117.124 120.607 117.166 120.247 117.166 119.867V119.688C117.166 119.312 117.124 118.958 117.041 118.625C116.962 118.286 116.837 117.987 116.666 117.727C116.499 117.466 116.285 117.263 116.025 117.117C115.77 116.966 115.465 116.891 115.111 116.891C114.757 116.891 114.449 116.966 114.189 117.117C113.934 117.263 113.723 117.466 113.556 117.727C113.389 117.987 113.267 118.286 113.189 118.625C113.111 118.958 113.072 119.312 113.072 119.688ZM122.494 117.352V124H120.611V115.547H122.384L122.494 117.352ZM122.158 119.461L121.548 119.453C121.554 118.854 121.637 118.305 121.798 117.805C121.965 117.305 122.194 116.875 122.486 116.516C122.783 116.156 123.137 115.88 123.548 115.688C123.96 115.49 124.418 115.391 124.923 115.391C125.33 115.391 125.697 115.448 126.025 115.562C126.358 115.672 126.642 115.852 126.876 116.102C127.116 116.352 127.298 116.677 127.423 117.078C127.548 117.474 127.611 117.961 127.611 118.539V124H125.72V118.531C125.72 118.125 125.66 117.805 125.541 117.57C125.426 117.331 125.257 117.161 125.033 117.062C124.814 116.958 124.541 116.906 124.212 116.906C123.889 116.906 123.6 116.974 123.345 117.109C123.09 117.245 122.874 117.43 122.697 117.664C122.525 117.898 122.392 118.169 122.298 118.477C122.205 118.784 122.158 119.112 122.158 119.461ZM134.298 122.305V118.273C134.298 117.971 134.244 117.711 134.134 117.492C134.025 117.273 133.858 117.104 133.634 116.984C133.416 116.865 133.139 116.805 132.806 116.805C132.499 116.805 132.233 116.857 132.009 116.961C131.785 117.065 131.611 117.206 131.486 117.383C131.361 117.56 131.298 117.76 131.298 117.984H129.423C129.423 117.651 129.504 117.328 129.666 117.016C129.827 116.703 130.061 116.424 130.369 116.18C130.676 115.935 131.043 115.742 131.47 115.602C131.897 115.461 132.376 115.391 132.908 115.391C133.543 115.391 134.106 115.497 134.595 115.711C135.09 115.924 135.478 116.247 135.759 116.68C136.046 117.107 136.189 117.643 136.189 118.289V122.047C136.189 122.432 136.215 122.779 136.267 123.086C136.324 123.388 136.405 123.651 136.509 123.875V124H134.58C134.491 123.797 134.421 123.539 134.369 123.227C134.322 122.909 134.298 122.602 134.298 122.305ZM134.572 118.859L134.587 120.023H133.236C132.887 120.023 132.58 120.057 132.314 120.125C132.048 120.188 131.827 120.281 131.65 120.406C131.473 120.531 131.34 120.682 131.251 120.859C131.163 121.036 131.119 121.237 131.119 121.461C131.119 121.685 131.171 121.891 131.275 122.078C131.379 122.26 131.53 122.404 131.728 122.508C131.931 122.612 132.176 122.664 132.462 122.664C132.848 122.664 133.184 122.586 133.47 122.43C133.762 122.268 133.991 122.073 134.158 121.844C134.324 121.609 134.413 121.388 134.423 121.18L135.033 122.016C134.97 122.229 134.863 122.458 134.712 122.703C134.561 122.948 134.363 123.182 134.119 123.406C133.879 123.625 133.59 123.805 133.251 123.945C132.918 124.086 132.533 124.156 132.095 124.156C131.543 124.156 131.051 124.047 130.619 123.828C130.186 123.604 129.848 123.305 129.603 122.93C129.358 122.549 129.236 122.12 129.236 121.641C129.236 121.193 129.319 120.797 129.486 120.453C129.658 120.104 129.908 119.812 130.236 119.578C130.569 119.344 130.975 119.167 131.455 119.047C131.934 118.922 132.481 118.859 133.095 118.859H134.572ZM140.173 112V124H138.283V112H140.173ZM152.392 121.07C152.392 120.836 152.356 120.628 152.283 120.445C152.215 120.263 152.093 120.096 151.916 119.945C151.738 119.794 151.488 119.648 151.166 119.508C150.848 119.362 150.442 119.214 149.947 119.062C149.405 118.896 148.905 118.711 148.447 118.508C147.994 118.299 147.598 118.06 147.259 117.789C146.921 117.513 146.658 117.198 146.47 116.844C146.283 116.484 146.189 116.07 146.189 115.602C146.189 115.138 146.285 114.716 146.478 114.336C146.676 113.956 146.955 113.628 147.314 113.352C147.679 113.07 148.108 112.854 148.603 112.703C149.098 112.547 149.645 112.469 150.244 112.469C151.087 112.469 151.814 112.625 152.423 112.938C153.038 113.25 153.509 113.669 153.837 114.195C154.171 114.721 154.337 115.302 154.337 115.938H152.392C152.392 115.562 152.311 115.232 152.15 114.945C151.994 114.654 151.754 114.424 151.431 114.258C151.113 114.091 150.71 114.008 150.22 114.008C149.757 114.008 149.371 114.078 149.064 114.219C148.757 114.359 148.528 114.549 148.376 114.789C148.225 115.029 148.15 115.299 148.15 115.602C148.15 115.815 148.199 116.01 148.298 116.188C148.397 116.359 148.548 116.521 148.751 116.672C148.955 116.818 149.21 116.956 149.517 117.086C149.824 117.216 150.186 117.341 150.603 117.461C151.233 117.648 151.783 117.857 152.251 118.086C152.72 118.31 153.111 118.565 153.423 118.852C153.736 119.138 153.97 119.464 154.126 119.828C154.283 120.188 154.361 120.596 154.361 121.055C154.361 121.534 154.264 121.966 154.072 122.352C153.879 122.732 153.603 123.057 153.244 123.328C152.889 123.594 152.462 123.799 151.962 123.945C151.468 124.086 150.916 124.156 150.306 124.156C149.759 124.156 149.22 124.083 148.689 123.938C148.163 123.792 147.684 123.57 147.251 123.273C146.819 122.971 146.475 122.596 146.22 122.148C145.965 121.695 145.837 121.167 145.837 120.562H147.798C147.798 120.932 147.861 121.247 147.986 121.508C148.116 121.768 148.296 121.982 148.525 122.148C148.754 122.31 149.02 122.43 149.322 122.508C149.629 122.586 149.957 122.625 150.306 122.625C150.764 122.625 151.147 122.56 151.455 122.43C151.767 122.299 152.001 122.117 152.158 121.883C152.314 121.648 152.392 121.378 152.392 121.07ZM159.783 115.547V116.922H155.017V115.547H159.783ZM156.392 113.477H158.275V121.664C158.275 121.924 158.311 122.125 158.384 122.266C158.462 122.401 158.569 122.492 158.705 122.539C158.84 122.586 158.999 122.609 159.181 122.609C159.311 122.609 159.436 122.602 159.556 122.586C159.676 122.57 159.772 122.555 159.845 122.539L159.853 123.977C159.697 124.023 159.514 124.065 159.306 124.102C159.103 124.138 158.869 124.156 158.603 124.156C158.171 124.156 157.788 124.081 157.455 123.93C157.121 123.773 156.861 123.521 156.673 123.172C156.486 122.823 156.392 122.359 156.392 121.781V113.477ZM166.001 122.305V118.273C166.001 117.971 165.947 117.711 165.837 117.492C165.728 117.273 165.561 117.104 165.337 116.984C165.119 116.865 164.843 116.805 164.509 116.805C164.202 116.805 163.936 116.857 163.712 116.961C163.488 117.065 163.314 117.206 163.189 117.383C163.064 117.56 163.001 117.76 163.001 117.984H161.126C161.126 117.651 161.207 117.328 161.369 117.016C161.53 116.703 161.764 116.424 162.072 116.18C162.379 115.935 162.746 115.742 163.173 115.602C163.6 115.461 164.08 115.391 164.611 115.391C165.246 115.391 165.809 115.497 166.298 115.711C166.793 115.924 167.181 116.247 167.462 116.68C167.749 117.107 167.892 117.643 167.892 118.289V122.047C167.892 122.432 167.918 122.779 167.97 123.086C168.028 123.388 168.108 123.651 168.212 123.875V124H166.283C166.194 123.797 166.124 123.539 166.072 123.227C166.025 122.909 166.001 122.602 166.001 122.305ZM166.275 118.859L166.291 120.023H164.939C164.59 120.023 164.283 120.057 164.017 120.125C163.751 120.188 163.53 120.281 163.353 120.406C163.176 120.531 163.043 120.682 162.955 120.859C162.866 121.036 162.822 121.237 162.822 121.461C162.822 121.685 162.874 121.891 162.978 122.078C163.082 122.26 163.233 122.404 163.431 122.508C163.634 122.612 163.879 122.664 164.166 122.664C164.551 122.664 164.887 122.586 165.173 122.43C165.465 122.268 165.694 122.073 165.861 121.844C166.028 121.609 166.116 121.388 166.126 121.18L166.736 122.016C166.673 122.229 166.567 122.458 166.416 122.703C166.264 122.948 166.067 123.182 165.822 123.406C165.582 123.625 165.293 123.805 164.955 123.945C164.621 124.086 164.236 124.156 163.798 124.156C163.246 124.156 162.754 124.047 162.322 123.828C161.889 123.604 161.551 123.305 161.306 122.93C161.061 122.549 160.939 122.12 160.939 121.641C160.939 121.193 161.022 120.797 161.189 120.453C161.361 120.104 161.611 119.812 161.939 119.578C162.272 119.344 162.679 119.167 163.158 119.047C163.637 118.922 164.184 118.859 164.798 118.859H166.275ZM175.275 115.547H176.986V123.766C176.986 124.526 176.824 125.172 176.501 125.703C176.179 126.234 175.728 126.638 175.15 126.914C174.572 127.195 173.903 127.336 173.142 127.336C172.819 127.336 172.46 127.289 172.064 127.195C171.673 127.102 171.293 126.951 170.923 126.742C170.559 126.539 170.254 126.271 170.009 125.938L170.892 124.828C171.194 125.188 171.528 125.451 171.892 125.617C172.257 125.784 172.639 125.867 173.041 125.867C173.473 125.867 173.84 125.786 174.142 125.625C174.449 125.469 174.686 125.237 174.853 124.93C175.02 124.622 175.103 124.247 175.103 123.805V117.461L175.275 115.547ZM169.533 119.867V119.703C169.533 119.062 169.611 118.479 169.767 117.953C169.923 117.422 170.147 116.966 170.439 116.586C170.731 116.201 171.085 115.906 171.501 115.703C171.918 115.495 172.389 115.391 172.916 115.391C173.462 115.391 173.929 115.49 174.314 115.688C174.705 115.885 175.03 116.169 175.291 116.539C175.551 116.904 175.754 117.341 175.9 117.852C176.051 118.357 176.163 118.919 176.236 119.539V120.062C176.168 120.667 176.054 121.219 175.892 121.719C175.731 122.219 175.517 122.651 175.251 123.016C174.986 123.38 174.658 123.661 174.267 123.859C173.882 124.057 173.426 124.156 172.9 124.156C172.384 124.156 171.918 124.049 171.501 123.836C171.09 123.622 170.736 123.323 170.439 122.938C170.147 122.552 169.923 122.099 169.767 121.578C169.611 121.052 169.533 120.482 169.533 119.867ZM171.416 119.703V119.867C171.416 120.253 171.452 120.612 171.525 120.945C171.603 121.279 171.72 121.573 171.876 121.828C172.038 122.078 172.241 122.276 172.486 122.422C172.736 122.562 173.03 122.633 173.369 122.633C173.811 122.633 174.173 122.539 174.455 122.352C174.741 122.164 174.96 121.911 175.111 121.594C175.267 121.271 175.376 120.911 175.439 120.516V119.102C175.408 118.794 175.343 118.508 175.244 118.242C175.15 117.977 175.022 117.745 174.861 117.547C174.699 117.344 174.496 117.188 174.251 117.078C174.007 116.964 173.718 116.906 173.384 116.906C173.046 116.906 172.751 116.979 172.501 117.125C172.251 117.271 172.046 117.471 171.884 117.727C171.728 117.982 171.611 118.279 171.533 118.617C171.455 118.956 171.416 119.318 171.416 119.703ZM180.955 115.547V124H179.064V115.547H180.955ZM178.939 113.328C178.939 113.042 179.033 112.805 179.22 112.617C179.413 112.424 179.679 112.328 180.017 112.328C180.35 112.328 180.613 112.424 180.806 112.617C180.999 112.805 181.095 113.042 181.095 113.328C181.095 113.609 180.999 113.844 180.806 114.031C180.613 114.219 180.35 114.312 180.017 114.312C179.679 114.312 179.413 114.219 179.22 114.031C179.033 113.844 178.939 113.609 178.939 113.328ZM184.884 117.352V124H183.001V115.547H184.775L184.884 117.352ZM184.548 119.461L183.939 119.453C183.944 118.854 184.028 118.305 184.189 117.805C184.356 117.305 184.585 116.875 184.876 116.516C185.173 116.156 185.528 115.88 185.939 115.688C186.35 115.49 186.809 115.391 187.314 115.391C187.72 115.391 188.087 115.448 188.416 115.562C188.749 115.672 189.033 115.852 189.267 116.102C189.507 116.352 189.689 116.677 189.814 117.078C189.939 117.474 190.001 117.961 190.001 118.539V124H188.111V118.531C188.111 118.125 188.051 117.805 187.931 117.57C187.817 117.331 187.647 117.161 187.423 117.062C187.205 116.958 186.931 116.906 186.603 116.906C186.28 116.906 185.991 116.974 185.736 117.109C185.481 117.245 185.264 117.43 185.087 117.664C184.916 117.898 184.783 118.169 184.689 118.477C184.595 118.784 184.548 119.112 184.548 119.461ZM197.337 115.547H199.048V123.766C199.048 124.526 198.887 125.172 198.564 125.703C198.241 126.234 197.791 126.638 197.212 126.914C196.634 127.195 195.965 127.336 195.205 127.336C194.882 127.336 194.522 127.289 194.126 127.195C193.736 127.102 193.356 126.951 192.986 126.742C192.621 126.539 192.317 126.271 192.072 125.938L192.955 124.828C193.257 125.188 193.59 125.451 193.955 125.617C194.319 125.784 194.702 125.867 195.103 125.867C195.535 125.867 195.903 125.786 196.205 125.625C196.512 125.469 196.749 125.237 196.916 124.93C197.082 124.622 197.166 124.247 197.166 123.805V117.461L197.337 115.547ZM191.595 119.867V119.703C191.595 119.062 191.673 118.479 191.83 117.953C191.986 117.422 192.21 116.966 192.501 116.586C192.793 116.201 193.147 115.906 193.564 115.703C193.981 115.495 194.452 115.391 194.978 115.391C195.525 115.391 195.991 115.49 196.376 115.688C196.767 115.885 197.093 116.169 197.353 116.539C197.613 116.904 197.817 117.341 197.962 117.852C198.113 118.357 198.225 118.919 198.298 119.539V120.062C198.231 120.667 198.116 121.219 197.955 121.719C197.793 122.219 197.58 122.651 197.314 123.016C197.048 123.38 196.72 123.661 196.33 123.859C195.944 124.057 195.488 124.156 194.962 124.156C194.447 124.156 193.981 124.049 193.564 123.836C193.153 123.622 192.798 123.323 192.501 122.938C192.21 122.552 191.986 122.099 191.83 121.578C191.673 121.052 191.595 120.482 191.595 119.867ZM193.478 119.703V119.867C193.478 120.253 193.514 120.612 193.587 120.945C193.666 121.279 193.783 121.573 193.939 121.828C194.1 122.078 194.304 122.276 194.548 122.422C194.798 122.562 195.093 122.633 195.431 122.633C195.874 122.633 196.236 122.539 196.517 122.352C196.804 122.164 197.022 121.911 197.173 121.594C197.33 121.271 197.439 120.911 197.501 120.516V119.102C197.47 118.794 197.405 118.508 197.306 118.242C197.212 117.977 197.085 117.745 196.923 117.547C196.762 117.344 196.559 117.188 196.314 117.078C196.069 116.964 195.78 116.906 195.447 116.906C195.108 116.906 194.814 116.979 194.564 117.125C194.314 117.271 194.108 117.471 193.947 117.727C193.791 117.982 193.673 118.279 193.595 118.617C193.517 118.956 193.478 119.318 193.478 119.703ZM209.603 114.141L206.205 124H204.15L208.431 112.625H209.744L209.603 114.141ZM212.447 124L209.041 114.141L208.892 112.625H210.212L214.509 124H212.447ZM212.283 119.781V121.336H206.095V119.781H212.283ZM217.322 117.352V124H215.439V115.547H217.212L217.322 117.352ZM216.986 119.461L216.376 119.453C216.382 118.854 216.465 118.305 216.626 117.805C216.793 117.305 217.022 116.875 217.314 116.516C217.611 116.156 217.965 115.88 218.376 115.688C218.788 115.49 219.246 115.391 219.751 115.391C220.158 115.391 220.525 115.448 220.853 115.562C221.186 115.672 221.47 115.852 221.705 116.102C221.944 116.352 222.126 116.677 222.251 117.078C222.376 117.474 222.439 117.961 222.439 118.539V124H220.548V118.531C220.548 118.125 220.488 117.805 220.369 117.57C220.254 117.331 220.085 117.161 219.861 117.062C219.642 116.958 219.369 116.906 219.041 116.906C218.718 116.906 218.429 116.974 218.173 117.109C217.918 117.245 217.702 117.43 217.525 117.664C217.353 117.898 217.22 118.169 217.126 118.477C217.033 118.784 216.986 119.112 216.986 119.461ZM229.517 122.25V112H231.408V124H229.697L229.517 122.25ZM224.017 119.867V119.703C224.017 119.062 224.093 118.479 224.244 117.953C224.395 117.422 224.613 116.966 224.9 116.586C225.186 116.201 225.535 115.906 225.947 115.703C226.358 115.495 226.822 115.391 227.337 115.391C227.848 115.391 228.296 115.49 228.681 115.688C229.067 115.885 229.395 116.169 229.666 116.539C229.936 116.904 230.153 117.341 230.314 117.852C230.475 118.357 230.59 118.919 230.658 119.539V120.062C230.59 120.667 230.475 121.219 230.314 121.719C230.153 122.219 229.936 122.651 229.666 123.016C229.395 123.38 229.064 123.661 228.673 123.859C228.288 124.057 227.837 124.156 227.322 124.156C226.811 124.156 226.35 124.049 225.939 123.836C225.533 123.622 225.186 123.323 224.9 122.938C224.613 122.552 224.395 122.099 224.244 121.578C224.093 121.052 224.017 120.482 224.017 119.867ZM225.9 119.703V119.867C225.9 120.253 225.934 120.612 226.001 120.945C226.074 121.279 226.186 121.573 226.337 121.828C226.488 122.078 226.684 122.276 226.923 122.422C227.168 122.562 227.46 122.633 227.798 122.633C228.225 122.633 228.577 122.539 228.853 122.352C229.129 122.164 229.345 121.911 229.501 121.594C229.663 121.271 229.772 120.911 229.83 120.516V119.102C229.798 118.794 229.733 118.508 229.634 118.242C229.541 117.977 229.413 117.745 229.251 117.547C229.09 117.344 228.889 117.188 228.65 117.078C228.416 116.964 228.137 116.906 227.814 116.906C227.47 116.906 227.179 116.979 226.939 117.125C226.699 117.271 226.501 117.471 226.345 117.727C226.194 117.982 226.082 118.279 226.009 118.617C225.936 118.956 225.9 119.318 225.9 119.703ZM240.853 124H238.423L238.439 122.445H240.853C241.556 122.445 242.145 122.292 242.619 121.984C243.098 121.677 243.457 121.237 243.697 120.664C243.942 120.091 244.064 119.409 244.064 118.617V118C244.064 117.385 243.994 116.841 243.853 116.367C243.718 115.893 243.514 115.495 243.244 115.172C242.978 114.849 242.65 114.604 242.259 114.438C241.874 114.271 241.429 114.188 240.923 114.188H238.376V112.625H240.923C241.679 112.625 242.369 112.753 242.994 113.008C243.619 113.258 244.158 113.62 244.611 114.094C245.069 114.568 245.421 115.135 245.666 115.797C245.91 116.458 246.033 117.198 246.033 118.016V118.617C246.033 119.435 245.91 120.174 245.666 120.836C245.421 121.497 245.069 122.065 244.611 122.539C244.153 123.008 243.606 123.37 242.97 123.625C242.34 123.875 241.634 124 240.853 124ZM239.509 112.625V124H237.548V112.625H239.509ZM251.541 124.156C250.916 124.156 250.35 124.055 249.845 123.852C249.345 123.643 248.918 123.354 248.564 122.984C248.215 122.615 247.947 122.18 247.759 121.68C247.572 121.18 247.478 120.641 247.478 120.062V119.75C247.478 119.089 247.574 118.49 247.767 117.953C247.96 117.417 248.228 116.958 248.572 116.578C248.916 116.193 249.322 115.898 249.791 115.695C250.259 115.492 250.767 115.391 251.314 115.391C251.918 115.391 252.447 115.492 252.9 115.695C253.353 115.898 253.728 116.185 254.025 116.555C254.327 116.919 254.551 117.354 254.697 117.859C254.848 118.365 254.923 118.922 254.923 119.531V120.336H248.392V118.984H253.064V118.836C253.054 118.497 252.986 118.18 252.861 117.883C252.741 117.586 252.556 117.346 252.306 117.164C252.056 116.982 251.723 116.891 251.306 116.891C250.994 116.891 250.715 116.958 250.47 117.094C250.231 117.224 250.03 117.414 249.869 117.664C249.707 117.914 249.582 118.216 249.494 118.57C249.41 118.919 249.369 119.312 249.369 119.75V120.062C249.369 120.432 249.418 120.776 249.517 121.094C249.621 121.406 249.772 121.68 249.97 121.914C250.168 122.148 250.408 122.333 250.689 122.469C250.97 122.599 251.291 122.664 251.65 122.664C252.103 122.664 252.507 122.573 252.861 122.391C253.215 122.208 253.522 121.951 253.783 121.617L254.775 122.578C254.593 122.844 254.356 123.099 254.064 123.344C253.772 123.583 253.416 123.779 252.994 123.93C252.577 124.081 252.093 124.156 251.541 124.156ZM259.845 122.656C260.153 122.656 260.429 122.596 260.673 122.477C260.923 122.352 261.124 122.18 261.275 121.961C261.431 121.742 261.517 121.49 261.533 121.203H263.306C263.296 121.75 263.134 122.247 262.822 122.695C262.509 123.143 262.095 123.5 261.58 123.766C261.064 124.026 260.494 124.156 259.869 124.156C259.223 124.156 258.66 124.047 258.181 123.828C257.702 123.604 257.304 123.297 256.986 122.906C256.668 122.516 256.429 122.065 256.267 121.555C256.111 121.044 256.033 120.497 256.033 119.914V119.641C256.033 119.057 256.111 118.51 256.267 118C256.429 117.484 256.668 117.031 256.986 116.641C257.304 116.25 257.702 115.945 258.181 115.727C258.66 115.503 259.22 115.391 259.861 115.391C260.538 115.391 261.132 115.526 261.642 115.797C262.153 116.062 262.554 116.435 262.845 116.914C263.142 117.388 263.296 117.94 263.306 118.57H261.533C261.517 118.258 261.439 117.977 261.298 117.727C261.163 117.471 260.97 117.268 260.72 117.117C260.475 116.966 260.181 116.891 259.837 116.891C259.457 116.891 259.142 116.969 258.892 117.125C258.642 117.276 258.447 117.484 258.306 117.75C258.166 118.01 258.064 118.305 258.001 118.633C257.944 118.956 257.916 119.292 257.916 119.641V119.914C257.916 120.263 257.944 120.602 258.001 120.93C258.059 121.258 258.158 121.552 258.298 121.812C258.444 122.068 258.642 122.273 258.892 122.43C259.142 122.581 259.46 122.656 259.845 122.656ZM264.392 119.867V119.688C264.392 119.078 264.481 118.513 264.658 117.992C264.835 117.466 265.09 117.01 265.423 116.625C265.762 116.234 266.173 115.932 266.658 115.719C267.147 115.5 267.699 115.391 268.314 115.391C268.934 115.391 269.486 115.5 269.97 115.719C270.46 115.932 270.874 116.234 271.212 116.625C271.551 117.01 271.809 117.466 271.986 117.992C272.163 118.513 272.251 119.078 272.251 119.688V119.867C272.251 120.477 272.163 121.042 271.986 121.562C271.809 122.083 271.551 122.539 271.212 122.93C270.874 123.315 270.462 123.617 269.978 123.836C269.494 124.049 268.944 124.156 268.33 124.156C267.71 124.156 267.155 124.049 266.666 123.836C266.181 123.617 265.77 123.315 265.431 122.93C265.093 122.539 264.835 122.083 264.658 121.562C264.481 121.042 264.392 120.477 264.392 119.867ZM266.275 119.688V119.867C266.275 120.247 266.314 120.607 266.392 120.945C266.47 121.284 266.593 121.581 266.759 121.836C266.926 122.091 267.139 122.292 267.4 122.438C267.66 122.583 267.97 122.656 268.33 122.656C268.679 122.656 268.981 122.583 269.236 122.438C269.496 122.292 269.71 122.091 269.876 121.836C270.043 121.581 270.166 121.284 270.244 120.945C270.327 120.607 270.369 120.247 270.369 119.867V119.688C270.369 119.312 270.327 118.958 270.244 118.625C270.166 118.286 270.041 117.987 269.869 117.727C269.702 117.466 269.488 117.263 269.228 117.117C268.973 116.966 268.668 116.891 268.314 116.891C267.96 116.891 267.653 116.966 267.392 117.117C267.137 117.263 266.926 117.466 266.759 117.727C266.593 117.987 266.47 118.286 266.392 118.625C266.314 118.958 266.275 119.312 266.275 119.688ZM275.72 117.156V124H273.837V115.547H275.634L275.72 117.156ZM278.306 115.492L278.291 117.242C278.176 117.221 278.051 117.206 277.916 117.195C277.785 117.185 277.655 117.18 277.525 117.18C277.202 117.18 276.918 117.227 276.673 117.32C276.429 117.409 276.223 117.539 276.056 117.711C275.895 117.878 275.77 118.081 275.681 118.32C275.593 118.56 275.541 118.828 275.525 119.125L275.095 119.156C275.095 118.625 275.147 118.133 275.251 117.68C275.356 117.227 275.512 116.828 275.72 116.484C275.934 116.141 276.199 115.872 276.517 115.68C276.84 115.487 277.212 115.391 277.634 115.391C277.749 115.391 277.871 115.401 278.001 115.422C278.137 115.443 278.238 115.466 278.306 115.492Z" fill="#CBE3FC"/>
</svg>
