<svg width="1154" height="883" viewBox="0 0 1154 883" fill="none" xmlns="http://www.w3.org/2000/svg">
<path d="M88.1505 701.151C82.7126 637.448 49.9366 599.402 34.2283 588.343L34.4248 577.379C40.9327 581.515 54.7084 590.238 57.7476 592.046C61.5466 594.306 115.119 584.409 123.746 582.237C130.406 580.561 154.581 575.65 166.126 574.208C165.929 585.171 168.671 585.219 174.105 588.056C178.452 590.326 235.045 595.158 262.799 597.29C258.659 603.797 252.938 621.024 263.167 637.873C273.395 654.723 300.837 657.909 313.279 657.397C311.447 667.783 313.992 678.795 317.164 685.43C319.701 690.739 337.073 696.747 345.441 699.087C344.413 705.466 343.095 719.773 346.056 725.967C349.016 732.16 370.493 760.027 380.861 773.187C378.103 774.052 371.047 775.975 364.89 776.745C358.757 777.511 350.773 792.461 347.507 799.929C347.865 800.129 347.773 800.125 347.468 800.017C347.481 799.988 347.494 799.959 347.507 799.929C346.584 799.413 342.67 797.545 331.694 792.612C316.459 785.765 298.789 802.453 291.859 811.653C290.297 808.385 287.554 800.94 276.282 793.285C265.01 785.629 231.164 815.957 231.164 815.957L226.946 818.356C223.734 814.884 219.107 805.796 211.538 794.342C191.887 764.606 165.097 773.969 154.159 782.368L129.841 731.493C117.576 705.835 101.519 710.159 95.0229 715.529L88.1505 701.151Z" fill="#3E7B69"/>
<path d="M34.2283 588.343C49.9366 599.402 82.7126 637.448 88.1505 701.151L95.0229 715.529C101.519 710.159 117.576 705.835 129.841 731.493C142.106 757.152 151.163 776.101 154.159 782.368C165.097 773.969 191.887 764.606 211.538 794.342C219.107 805.796 223.734 814.884 226.946 818.356L231.164 815.957C231.164 815.957 265.01 785.629 276.282 793.285C287.554 800.94 290.297 808.385 291.859 811.653C298.789 802.453 316.459 785.765 331.694 792.612C346.93 799.46 348.558 800.402 347.468 800.017C350.71 792.58 358.733 777.514 364.89 776.745C371.047 775.975 378.103 774.052 380.861 773.187C370.493 760.027 349.016 732.16 346.056 725.967C343.095 719.773 344.413 705.466 345.441 699.087C337.073 696.747 319.701 690.739 317.164 685.43C313.992 678.795 311.447 667.783 313.279 657.397C300.837 657.909 273.395 654.723 263.167 637.873C252.938 621.024 258.659 603.797 262.799 597.29C235.045 595.158 178.452 590.326 174.105 588.056C168.671 585.219 165.929 585.171 166.126 574.208C154.581 575.65 130.406 580.561 123.746 582.237C115.119 584.409 61.5466 594.306 57.7476 592.046C54.7084 590.238 40.9327 581.515 34.4248 577.379L34.2283 588.343Z" stroke="#306B5A" stroke-width="11" stroke-linejoin="round"/>
<path d="M326.24 747.902L58.5385 609.538L33.9722 582.194L64.4808 597.118L325.916 740.01L326.24 747.902Z" fill="#306B5A"/>
<path d="M812.65 573.513C807.7 560.786 795.797 537.333 787.547 530.026L779.769 496.792C806.639 504.335 864.622 516.025 874.521 518.005C886.896 520.48 930.03 542.4 956.546 557.603C983.063 572.806 1018.65 588.834 1052.71 638.92C1064.73 656.598 1085.24 740.036 1085.24 740.036C1085.24 740.036 1092.07 777.749 1095.49 792.009C1090.9 788.12 946.293 731.198 930.383 725.187C914.473 719.177 873.815 682.761 860.38 665.79C846.945 648.82 817.601 586.24 812.65 573.513Z" fill="#6C9D88" stroke="#3F7865" stroke-width="11" stroke-linejoin="round"/>
<path d="M85.7435 381.887C80.0866 388.676 31.2962 393.908 7.60816 395.676L39.7815 427.849C63.116 425.021 110.704 419.152 114.381 418.303C118.058 417.455 148.44 423.135 163.172 426.082C164.114 428.674 166.353 439.87 167.768 463.912C169.536 493.964 196.406 516.591 207.366 524.723C218.326 532.854 262.874 551.947 266.763 553.007C270.652 554.068 319.089 553.714 331.816 551.593C341.999 549.896 384.614 555.129 404.648 557.957C402.999 555.128 398.709 547.492 394.749 539.572C389.799 529.673 357.272 498.56 336.766 478.054C316.26 457.548 286.915 441.638 265.348 432.799C248.095 425.728 206.305 416.182 187.567 412.293C204.773 407.815 247.459 397.515 280.551 392.14C313.644 386.766 375.657 392.494 402.527 396.029L463.692 507.399C463.456 533.562 463.197 588.221 464.045 597.555C465.106 609.222 489.501 647.052 496.219 653.77C502.936 660.487 527.332 672.862 541.12 678.872C554.909 684.883 586.375 690.186 589.203 690.186C591.466 690.186 610.888 692.543 620.316 693.721C620.198 671.212 619.538 621.384 617.841 602.151C615.72 578.109 597.689 539.572 566.222 521.541C541.049 507.116 498.694 498.089 480.662 495.378L433.993 403.454C435.408 402.983 442.549 401.969 459.803 401.686C481.37 401.333 499.401 405.222 511.068 406.283C522.735 407.343 587.789 429.971 600.871 433.153C613.952 436.335 702.694 476.993 730.271 489.721C752.333 499.903 778.59 521.305 788.961 530.733L776.587 495.024C767.041 488.543 745.969 474.306 738.049 469.215C730.13 464.124 688.552 444.466 668.753 435.274C678.063 434.449 702.906 430.678 727.796 422.192C752.686 413.707 778.001 393.437 787.547 384.362C784.011 385.776 742.999 361.028 739.817 357.846C736.635 354.664 724.261 347.946 698.451 339.814C672.642 331.683 635.519 340.522 611.124 352.896C591.608 362.795 565.987 386.955 555.616 397.797C549.959 392.14 420.558 373.52 356.565 364.917C368.586 361.146 393.406 353.249 396.517 351.835C400.406 350.068 446.722 354.664 465.813 349.007C484.905 343.35 494.451 289.256 490.562 283.246C486.709 277.292 433.928 267.52 423.665 265.62L423.387 265.568C413.841 263.801 395.103 266.983 386.971 274.407C380.465 280.347 373.065 314.712 376.011 336.986L296.108 373.049L206.659 382.595C208.309 379.059 211.75 370.998 212.316 367.038C213.023 362.088 211.962 342.643 210.194 331.683C208.78 322.915 213.141 298.567 215.498 287.489C204.537 292.085 178.728 286.075 170.596 285.721C162.465 285.367 143.726 285.014 124.988 291.024C106.25 297.035 104.128 304.106 88.9255 321.43C73.7227 338.754 92.8145 373.402 85.7435 381.887Z" fill="#4E8976"/>
<path d="M7.60816 395.676L7.3849 392.684L0.860717 393.171L5.48684 397.797L7.60816 395.676ZM85.7435 381.887L88.0481 383.808L88.0481 383.808L85.7435 381.887ZM215.498 287.489L218.432 288.113L219.625 282.505L214.337 284.722L215.498 287.489ZM210.194 331.683L207.233 332.161L207.233 332.161L210.194 331.683ZM212.316 367.038L209.346 366.614L209.346 366.614L212.316 367.038ZM206.659 382.595L203.94 381.326L201.693 386.142L206.977 385.578L206.659 382.595ZM296.108 373.049L296.426 376.032L296.904 375.981L297.342 375.783L296.108 373.049ZM376.011 336.986L377.245 339.721L379.277 338.803L378.985 336.593L376.011 336.986ZM386.971 274.407L384.948 272.192L384.948 272.192L386.971 274.407ZM423.387 265.568L422.841 268.518L422.841 268.518L423.387 265.568ZM423.665 265.62L424.211 262.67L424.211 262.67L423.665 265.62ZM490.562 283.246L488.043 284.876L488.043 284.876L490.562 283.246ZM396.517 351.835L397.758 354.566L397.758 354.566L396.517 351.835ZM356.565 364.917L355.667 362.054L356.166 367.89L356.565 364.917ZM555.616 397.797L553.495 399.919L555.663 402.088L557.784 399.871L555.616 397.797ZM611.124 352.896L609.767 350.22L609.767 350.22L611.124 352.896ZM787.547 384.362L789.614 386.537L786.433 381.577L787.547 384.362ZM727.796 422.192L728.764 425.032L728.764 425.032L727.796 422.192ZM668.753 435.274L668.488 432.286L657.323 433.275L667.49 437.995L668.753 435.274ZM776.587 495.024L779.421 494.042L779.095 493.102L778.272 492.543L776.587 495.024ZM788.961 530.733L786.943 532.953L791.796 529.751L788.961 530.733ZM730.271 489.721L729.014 492.445L729.014 492.445L730.271 489.721ZM459.803 401.686L459.852 404.686L459.852 404.686L459.803 401.686ZM433.993 403.454L433.045 400.608L429.743 401.709L431.318 404.812L433.993 403.454ZM480.662 495.378L477.987 496.736L478.687 498.115L480.216 498.345L480.662 495.378ZM566.222 521.541L567.714 518.938L567.714 518.938L566.222 521.541ZM617.841 602.151L614.853 602.415L614.853 602.415L617.841 602.151ZM620.316 693.721L619.944 696.698L623.334 697.122L623.316 693.706L620.316 693.721ZM589.203 690.186L589.203 693.186L589.203 693.186L589.203 690.186ZM464.045 597.555L461.058 597.827L461.058 597.827L464.045 597.555ZM463.692 507.399L466.692 507.426L466.699 506.642L466.321 505.955L463.692 507.399ZM402.527 396.029L405.157 394.585L404.425 393.253L402.919 393.055L402.527 396.029ZM187.567 412.293L186.811 409.39L186.957 415.23L187.567 412.293ZM265.348 432.799L264.211 435.575L264.211 435.575L265.348 432.799ZM394.749 539.572L392.066 540.914L392.066 540.914L394.749 539.572ZM404.648 557.957L404.229 560.927C405.368 561.088 406.498 560.584 407.139 559.63C407.78 558.675 407.819 557.438 407.24 556.445L404.648 557.957ZM331.816 551.593L331.323 548.634L331.323 548.634L331.816 551.593ZM167.768 463.912L170.763 463.736L170.763 463.736L167.768 463.912ZM163.172 426.082L165.991 425.056L165.414 423.471L163.76 423.14L163.172 426.082ZM39.7815 427.849L37.6602 429.971L38.6928 431.003L40.1425 430.828L39.7815 427.849ZM7.83142 398.668C19.7224 397.78 37.9202 396.023 53.8821 393.631C61.8546 392.436 69.34 391.073 75.2251 389.563C78.1628 388.809 80.7764 388 82.8818 387.128C84.868 386.305 86.843 385.254 88.0481 383.808L83.4388 379.967C83.2297 380.218 82.4426 380.815 80.5853 381.585C78.8471 382.305 76.5359 383.032 73.7338 383.751C68.1395 385.187 60.8861 386.515 52.9929 387.697C37.2234 390.061 19.182 391.804 7.3849 392.684L7.83142 398.668ZM88.0481 383.808C89.4658 382.107 90.0555 379.967 90.2711 377.871C90.4884 375.757 90.3545 373.389 90.0651 370.945C89.4985 366.159 88.1973 360.177 87.244 354.478C86.2594 348.593 85.571 342.667 85.9997 337.227C86.4263 331.815 87.942 327.099 91.1804 323.409L86.6706 319.451C82.3076 324.423 80.5087 330.534 80.0183 336.756C79.53 342.95 80.322 349.465 81.3262 355.468C82.3616 361.658 83.5574 367.011 84.1067 371.65C84.3752 373.918 84.454 375.784 84.3025 377.257C84.1493 378.747 83.7889 379.547 83.4388 379.967L88.0481 383.808ZM91.1804 323.409C95.0205 319.033 98.0422 315.295 100.655 312.123C103.287 308.926 105.472 306.344 107.732 304.125C112.12 299.819 116.906 296.767 125.904 293.881L124.072 288.168C114.331 291.292 108.688 294.781 103.53 299.843C101.017 302.31 98.6499 305.119 96.0231 308.308C93.3765 311.522 90.432 315.165 86.6706 319.451L91.1804 323.409ZM125.904 293.881C144.12 288.038 162.422 288.368 170.466 288.718L170.727 282.724C162.507 282.366 143.332 281.99 124.072 288.168L125.904 293.881ZM170.466 288.718C172.312 288.798 175.273 289.211 179.071 289.762C182.79 290.301 187.177 290.95 191.658 291.443C196.135 291.935 200.786 292.282 205.058 292.201C209.275 292.121 213.394 291.624 216.658 290.255L214.337 284.722C212.121 285.651 208.904 286.127 204.945 286.202C201.041 286.276 196.677 285.959 192.314 285.479C187.957 285 183.681 284.367 179.932 283.824C176.261 283.292 172.946 282.82 170.727 282.724L170.466 288.718ZM212.563 286.864C211.374 292.456 209.681 301.382 208.461 310.033C207.851 314.358 207.355 318.648 207.102 322.436C206.852 326.168 206.822 329.616 207.233 332.161L213.156 331.205C212.859 329.366 212.844 326.482 213.088 322.837C213.328 319.247 213.804 315.114 214.402 310.871C215.599 302.386 217.265 293.6 218.432 288.113L212.563 286.864ZM207.233 332.161C208.094 337.5 208.793 344.99 209.188 351.788C209.59 358.703 209.649 364.491 209.346 366.614L215.286 367.463C215.689 364.636 215.572 358.226 215.178 351.441C214.777 344.539 214.063 336.826 213.156 331.205L207.233 332.161ZM209.346 366.614C209.117 368.218 208.235 370.935 207.094 373.897C205.986 376.775 204.741 379.61 203.94 381.326L209.377 383.863C210.227 382.043 211.527 379.08 212.693 376.054C213.827 373.111 214.949 369.818 215.286 367.462L209.346 366.614ZM206.977 385.578L296.426 376.032L295.789 370.066L206.34 379.612L206.977 385.578ZM297.342 375.783L377.245 339.721L374.777 334.252L294.874 370.314L297.342 375.783ZM378.985 336.593C377.569 325.886 378.633 312.07 380.894 300.13C382.021 294.179 383.428 288.786 384.927 284.562C385.677 282.448 386.433 280.674 387.164 279.288C387.918 277.861 388.553 277.025 388.994 276.623L384.948 272.192C383.762 273.274 382.743 274.811 381.858 276.487C380.951 278.205 380.085 280.264 379.272 282.556C377.645 287.141 376.167 292.845 374.999 299.013C372.67 311.309 371.507 325.813 373.037 337.38L378.985 336.593ZM388.994 276.623C392.483 273.437 398.588 270.932 405.287 269.472C411.946 268.02 418.59 267.731 422.841 268.518L423.933 262.618C418.638 261.638 411.139 262.055 404.01 263.609C396.92 265.155 389.591 267.953 384.948 272.192L388.994 276.623ZM422.841 268.518L423.119 268.57L424.211 262.67L423.933 262.618L422.841 268.518ZM423.118 268.57C428.251 269.52 443.956 272.428 458.848 275.837C466.302 277.543 473.49 279.361 479.024 281.108C481.799 281.984 484.083 282.818 485.751 283.584C486.586 283.967 487.204 284.304 487.629 284.586C488.099 284.899 488.132 285.013 488.043 284.876L493.081 281.616C492.51 280.734 491.68 280.074 490.949 279.589C490.172 279.073 489.251 278.588 488.254 278.13C486.258 277.215 483.706 276.294 480.83 275.386C475.064 273.567 467.692 271.706 460.187 269.988C445.159 266.548 429.342 263.62 424.211 262.67L423.118 268.57ZM488.043 284.876C487.977 284.773 488.077 284.893 488.188 285.476C488.289 286.005 488.367 286.734 488.4 287.673C488.467 289.547 488.352 292.022 488.038 294.94C487.411 300.765 486.02 308.098 483.921 315.434C481.818 322.785 479.042 330.002 475.698 335.665C472.289 341.44 468.615 345.048 464.961 346.131L466.666 351.883C472.557 350.138 477.236 344.862 480.865 338.716C484.56 332.458 487.507 324.715 489.69 317.084C491.878 309.438 493.338 301.767 494.003 295.582C494.336 292.496 494.477 289.715 494.396 287.458C494.356 286.332 494.259 285.277 494.082 284.35C493.915 283.477 493.633 282.47 493.081 281.616L488.043 284.876ZM464.961 346.131C460.533 347.443 454.342 348.202 447.313 348.591C440.329 348.978 432.71 348.99 425.51 348.88C418.206 348.768 411.693 348.54 406.355 348.444C403.754 348.397 401.487 348.383 399.73 348.44C398.854 348.468 398.055 348.516 397.38 348.594C396.801 348.662 395.981 348.783 395.275 349.104L397.758 354.566C397.538 354.666 397.536 354.617 398.073 354.554C398.512 354.503 399.125 354.463 399.925 354.437C401.521 354.385 403.659 354.396 406.246 354.443C411.282 354.534 418.271 354.77 425.418 354.879C432.67 354.99 440.452 354.98 447.644 354.582C454.79 354.187 461.548 353.4 466.666 351.883L464.961 346.131ZM395.275 349.104C394.669 349.38 392.708 350.084 389.691 351.104C386.757 352.096 383.001 353.329 378.958 354.638C370.873 357.257 361.672 360.17 355.667 362.054L357.463 367.779C363.479 365.892 372.699 362.972 380.806 360.346C384.859 359.034 388.643 357.792 391.613 356.788C394.501 355.811 396.809 354.998 397.758 354.566L395.275 349.104ZM356.166 367.89C388.15 372.19 436.475 378.993 477.502 385.426C498.02 388.643 516.685 391.763 530.561 394.429C537.505 395.763 543.206 396.975 547.325 398.021C549.391 398.545 551.003 399.014 552.154 399.42C552.731 399.623 553.141 399.793 553.413 399.926C553.742 400.086 553.677 400.101 553.495 399.919L557.737 395.676C557.201 395.14 556.541 394.776 556.044 394.533C555.491 394.263 554.846 394.007 554.149 393.761C552.751 393.268 550.941 392.748 548.802 392.205C544.512 391.116 538.675 389.878 531.693 388.537C517.715 385.851 498.97 382.718 478.431 379.498C437.346 373.056 388.974 366.247 356.965 361.944L356.166 367.89ZM557.784 399.871C562.903 394.519 571.827 385.839 581.885 377.277C591.978 368.685 603.046 360.357 612.481 355.571L609.767 350.22C599.685 355.334 588.184 364.036 577.996 372.709C567.771 381.412 558.699 390.233 553.448 395.724L557.784 399.871ZM612.481 355.571C624.416 349.517 639.514 344.309 654.778 341.62C670.079 338.925 685.278 338.81 697.55 342.676L699.353 336.953C685.815 332.688 669.548 332.926 653.737 335.711C637.888 338.502 622.227 343.9 609.767 350.22L612.481 355.571ZM697.55 342.676C710.367 346.714 719.79 350.383 726.365 353.411C733.063 356.496 736.515 358.787 737.696 359.967L741.938 355.724C739.937 353.723 735.611 351.064 728.874 347.961C722.014 344.802 712.345 341.047 699.353 336.953L697.55 342.676ZM737.696 359.967C738.33 360.601 739.571 361.496 740.945 362.434C742.418 363.44 744.328 364.684 746.518 366.067C750.902 368.835 756.471 372.203 762.049 375.425C767.619 378.643 773.24 381.74 777.715 383.952C779.944 385.054 781.954 385.969 783.562 386.57C784.358 386.867 785.14 387.119 785.845 387.268C786.198 387.342 786.6 387.406 787.018 387.418C787.401 387.43 788.012 387.407 788.661 387.148L786.433 381.577C786.86 381.406 787.177 381.42 787.198 381.421C787.253 381.423 787.224 381.427 787.082 381.397C786.796 381.337 786.331 381.199 785.661 380.949C784.336 380.454 782.538 379.643 780.374 378.574C776.067 376.444 770.573 373.42 765.05 370.23C759.535 367.044 754.033 363.716 749.722 360.994C747.565 359.631 745.721 358.43 744.328 357.479C743.631 357.003 743.064 356.601 742.634 356.28C742.42 356.12 742.252 355.989 742.125 355.885C742.062 355.834 742.015 355.793 741.981 355.763C741.946 355.732 741.934 355.72 741.938 355.724L737.696 359.967ZM785.48 382.188C776.065 391.138 751.122 411.071 726.828 419.353L728.764 425.032C754.251 416.343 779.937 395.735 789.614 386.537L785.48 382.188ZM726.828 419.353C702.203 427.748 677.601 431.478 668.488 432.286L669.018 438.262C678.525 437.42 703.609 433.608 728.764 425.032L726.828 419.353ZM667.49 437.995C677.379 442.587 692.709 449.792 706.55 456.483C720.498 463.226 732.66 469.317 736.427 471.739L739.672 466.692C735.519 464.022 722.933 457.739 709.162 451.081C695.284 444.373 679.925 437.154 670.016 432.553L667.49 437.995ZM736.427 471.739C744.308 476.805 765.343 491.016 774.901 497.506L778.272 492.543C768.738 486.069 747.63 471.808 739.672 466.692L736.427 471.739ZM773.752 496.007L786.126 531.716L791.796 529.751L779.421 494.042L773.752 496.007ZM790.979 528.514C780.55 519.033 754.018 497.377 731.528 486.997L729.014 492.445C750.648 502.43 776.63 523.578 786.943 532.953L790.979 528.514ZM731.528 486.997C717.735 480.631 688.642 467.278 661.356 455.117C647.715 449.037 634.512 443.249 623.894 438.779C613.399 434.361 605.139 431.103 601.58 430.238L600.162 436.068C603.143 436.793 610.881 439.811 621.566 444.309C632.128 448.755 645.287 454.524 658.914 460.597C686.164 472.743 715.23 486.083 729.014 492.445L731.528 486.997ZM601.58 430.238C595.176 428.68 575.836 422.292 556.352 416.064C546.671 412.97 537.006 409.933 529.023 407.601C521.174 405.309 514.609 403.592 511.34 403.295L510.796 409.27C513.36 409.503 519.303 411.013 527.341 413.361C535.246 415.67 544.85 418.687 554.526 421.78C573.757 427.926 593.483 434.443 600.162 436.068L601.58 430.238ZM511.34 403.295C500.17 402.279 481.498 398.33 459.754 398.687L459.852 404.686C481.241 404.335 498.631 408.164 510.796 409.27L511.34 403.295ZM459.754 398.687C451.079 398.829 444.91 399.155 440.706 399.51C436.642 399.853 434.146 400.241 433.045 400.608L434.942 406.3C434.935 406.303 434.966 406.292 435.051 406.271C435.132 406.251 435.245 406.225 435.393 406.195C435.691 406.135 436.097 406.065 436.629 405.987C437.691 405.833 439.193 405.659 441.211 405.489C445.244 405.148 451.273 404.827 459.852 404.686L459.754 398.687ZM431.318 404.812L477.987 496.736L483.337 494.02L436.668 402.096L431.318 404.812ZM480.216 498.345C498.193 501.047 540.073 510.014 564.731 524.144L567.714 518.938C542.025 504.218 499.194 495.13 481.108 492.411L480.216 498.345ZM564.731 524.144C579.895 532.833 591.929 546.536 600.446 561.106C608.972 575.691 613.838 590.913 614.853 602.415L620.83 601.887C619.723 589.347 614.512 573.28 605.626 558.078C596.731 542.861 584.016 528.28 567.714 518.938L564.731 524.144ZM614.853 602.415C616.537 621.497 617.198 671.184 617.316 693.737L623.316 693.706C623.198 671.24 622.54 621.272 620.83 601.887L614.853 602.415ZM620.688 690.745C615.969 690.155 608.748 689.27 602.42 688.532C599.257 688.163 596.309 687.83 594.006 687.589C591.8 687.358 589.966 687.186 589.203 687.186L589.203 693.186C589.572 693.186 591.014 693.308 593.381 693.556C595.65 693.794 598.571 694.124 601.725 694.492C608.031 695.227 615.235 696.11 619.944 696.698L620.688 690.745ZM589.203 687.186C589.217 687.186 589.18 687.186 589.07 687.178C588.968 687.171 588.831 687.159 588.658 687.141C588.31 687.105 587.854 687.049 587.293 686.973C586.173 686.822 584.689 686.596 582.927 686.304C579.405 685.719 574.816 684.876 569.885 683.846C559.939 681.769 548.9 678.991 542.319 676.122L539.921 681.622C547.129 684.764 558.717 687.643 568.658 689.72C573.671 690.767 578.341 691.625 581.945 692.223C583.746 692.522 585.292 692.757 586.488 692.919C587.599 693.07 588.61 693.186 589.203 693.186V687.186ZM542.319 676.122C535.502 673.151 526.032 668.592 517.445 663.947C513.152 661.626 509.109 659.299 505.743 657.152C502.329 654.974 499.777 653.085 498.34 651.649L494.097 655.891C496.02 657.813 499.036 659.99 502.516 662.21C506.044 664.461 510.222 666.862 514.591 669.225C523.327 673.95 532.949 678.583 539.921 681.622L542.319 676.122ZM498.34 651.649C496.873 650.182 494.226 646.765 490.97 642.081C487.762 637.465 484.085 631.797 480.582 625.972C477.075 620.142 473.767 614.196 471.28 609.017C468.728 603.703 467.244 599.598 467.033 597.283L461.058 597.827C461.378 601.346 463.34 606.344 465.871 611.615C468.467 617.02 471.876 623.139 475.44 629.065C479.008 634.996 482.755 640.774 486.043 645.505C489.284 650.168 492.205 653.999 494.097 655.891L498.34 651.649ZM467.033 597.283C466.625 592.789 466.474 576.974 466.462 558.786C466.45 540.696 466.574 520.501 466.692 507.426L460.692 507.372C460.574 520.46 460.45 540.675 460.462 558.79C460.474 576.806 460.618 592.987 461.058 597.827L467.033 597.283ZM466.321 505.955L405.157 394.585L399.898 397.474L461.062 508.843L466.321 505.955ZM402.919 393.055C389.414 391.278 367.115 388.955 344.029 387.748C321.005 386.544 296.955 386.437 280.07 389.179L281.032 395.102C297.24 392.469 320.743 392.539 343.716 393.74C366.628 394.937 388.77 397.245 402.136 399.004L402.919 393.055ZM280.07 389.179C246.841 394.576 204.051 404.903 186.811 409.39L188.322 415.196C205.495 410.727 248.076 400.454 281.032 395.102L280.07 389.179ZM186.957 415.23C205.768 419.135 247.264 428.63 264.211 435.575L266.486 430.023C248.926 422.826 206.842 413.23 188.176 409.356L186.957 415.23ZM264.211 435.575C285.583 444.334 314.528 460.058 334.645 480.175L338.888 475.933C317.993 455.038 288.248 438.942 266.486 430.023L264.211 435.575ZM334.645 480.175C344.946 490.476 358.143 503.32 369.446 514.887C375.089 520.663 380.217 526.077 384.231 530.647C388.323 535.306 391.026 538.835 392.066 540.914L397.432 538.231C395.997 535.36 392.779 531.287 388.739 526.688C384.621 521.999 379.407 516.497 373.737 510.694C362.412 499.104 349.093 486.138 338.888 475.933L334.645 480.175ZM392.066 540.914C396.06 548.902 400.382 556.597 402.057 559.469L407.24 556.445C405.615 553.66 401.358 546.081 397.432 538.231L392.066 540.914ZM405.068 554.986C395.023 553.568 379.319 551.548 364.838 550.093C357.599 549.366 350.638 548.777 344.829 548.478C339.122 548.183 334.237 548.148 331.323 548.634L332.31 554.552C334.488 554.189 338.747 554.172 344.52 554.47C350.192 554.762 357.046 555.34 364.238 556.063C378.619 557.507 394.24 559.517 404.229 560.927L405.068 554.986ZM331.323 548.634C325.225 549.65 310.175 550.272 295.928 550.494C288.858 550.604 282.073 550.615 276.825 550.532C274.198 550.491 271.977 550.427 270.305 550.342C269.467 550.299 268.791 550.252 268.282 550.203C267.712 550.148 267.523 550.105 267.552 550.113L265.973 555.902C266.488 556.042 267.133 556.12 267.706 556.176C268.34 556.237 269.116 556.289 270 556.334C271.771 556.424 274.071 556.49 276.731 556.532C282.056 556.615 288.906 556.604 296.022 556.493C310.147 556.273 325.68 555.657 332.31 554.552L331.323 548.634ZM267.552 550.113C266.823 549.914 263.542 548.628 258.549 546.52C253.681 544.465 247.431 541.736 240.96 538.787C234.486 535.836 227.812 532.674 222.087 529.752C216.305 526.8 211.67 524.181 209.153 522.314L205.578 527.132C208.541 529.331 213.585 532.148 219.359 535.096C225.191 538.073 231.952 541.275 238.472 544.247C244.994 547.219 251.295 549.971 256.216 552.048C261.012 554.072 264.757 555.57 265.973 555.902L267.552 550.113ZM209.153 522.314C203.782 518.328 194.55 510.816 186.466 500.668C178.37 490.505 171.597 477.915 170.763 463.736L164.773 464.088C165.707 479.96 173.252 493.71 181.773 504.407C190.307 515.119 199.99 522.986 205.578 527.132L209.153 522.314ZM170.763 463.736C170.052 451.653 169.132 442.762 168.264 436.539C167.409 430.407 166.581 426.679 165.991 425.056L160.352 427.107C160.705 428.077 161.468 431.243 162.322 437.368C163.163 443.401 164.069 452.129 164.773 464.088L170.763 463.736ZM163.76 423.14C156.377 421.663 145.068 419.501 135.134 417.812C130.171 416.968 125.521 416.238 121.864 415.771C120.04 415.538 118.426 415.365 117.126 415.28C115.975 415.204 114.663 415.159 113.707 415.38L115.056 421.227C115.019 421.235 115.461 421.183 116.732 421.267C117.855 421.341 119.333 421.496 121.104 421.722C124.639 422.174 129.195 422.888 134.128 423.727C143.987 425.403 155.235 427.554 162.583 429.023L163.76 423.14ZM113.707 415.38C112.965 415.551 109.5 416.055 104.058 416.782C98.7257 417.494 91.7118 418.394 84.0774 419.357C68.8104 421.284 51.0849 423.457 39.4205 424.871L40.1425 430.828C51.8126 429.413 69.5485 427.238 84.8284 425.31C92.4675 424.347 99.4984 423.444 104.852 422.729C110.096 422.028 113.959 421.48 115.056 421.227L113.707 415.38ZM41.9028 425.728L9.72948 393.555L5.48684 397.797L37.6602 429.971L41.9028 425.728Z" fill="#3F7865"/>
<path d="M848.359 548.411C842.419 544.169 793.322 510.11 770.577 495.378L775.173 511.995C796.033 526.491 838.53 556.119 841.641 558.664C844.752 561.21 901.392 601.209 929.322 620.89C904.809 598.498 854.298 552.654 848.359 548.411Z" fill="#4E8976"/>
<circle cx="695.5" cy="622.5" r="99.5" fill="#E76761"/>
<path fill-rule="evenodd" clip-rule="evenodd" d="M639.791 542.384C634.249 528.058 623.978 497.947 627.222 492.108C630.465 486.27 638.303 483.188 641.817 482.377C638.033 469.538 631.924 442.075 637.763 434.939C645.061 426.019 654.386 425.614 658.035 428.857C661.684 432.101 661.279 440.616 655.603 451.563C651.061 460.321 653.71 473.863 655.603 479.539C661.955 477.647 676.2 474.998 682.362 479.539C690.066 485.215 695.742 518.463 696.148 524.139C696.472 528.68 658.711 538.195 639.791 542.384ZM645.872 436.966C648.305 434.939 650.657 434.858 651.954 436.156C653.252 437.453 652.495 440.751 651.954 442.237L645.467 450.752C644.656 451.428 642.629 452.536 641.007 451.563C638.98 450.346 640.196 446.292 641.007 444.67C641.134 444.415 641.282 444.1 641.449 443.743C642.348 441.824 643.822 438.675 645.872 436.966Z" fill="#397867"/>
</svg>
